<?xml version="1.0" encoding="UTF-8" standalone="no"?>
<!DOCTYPE svg PUBLIC "-//W3C//DTD SVG 1.1//EN"
 "http://www.w3.org/Graphics/SVG/1.1/DTD/svg11.dtd">
<!-- Generated by graphviz version 2.38.0 (20140413.2041)
 -->
<!-- Title: %3 Pages: 1 -->
<svg width="97pt" height="336pt"
 viewBox="0.00 0.00 97.00 335.60" xmlns="http://www.w3.org/2000/svg" xmlns:xlink="http://www.w3.org/1999/xlink">
<g id="graph0" class="graph" transform="scale(1 1) rotate(0) translate(4 331.6)">
<title>%3</title>
<polygon fill="white" stroke="none" points="-4,4 -4,-331.6 93,-331.6 93,4 -4,4"/>
<text text-anchor="middle" x="44.5" y="-7.8" font-family="Times New Roman,serif" font-size="14.00">test</text>
<!-- qi -->
<g id="node1" class="node"><title>qi</title>
<ellipse fill="black" stroke="black" cx="61" cy="-325.8" rx="1.8" ry="1.8"/>
</g>
<!-- 1 -->
<g id="node2" class="node"><title>1</title>
<ellipse fill="none" stroke="black" cx="61" cy="-255" rx="18" ry="18"/>
<text text-anchor="middle" x="61" y="-251.3" font-family="Times New Roman,serif" font-size="14.00">1</text>
</g>
<!-- qi&#45;&gt;1 -->
<g id="edge1" class="edge"><title>qi&#45;&gt;1</title>
<path fill="none" stroke="black" d="M61,-323.827C61,-319.337 61,-300.111 61,-283.269"/>
<polygon fill="black" stroke="black" points="64.5001,-283.245 61,-273.245 57.5001,-283.245 64.5001,-283.245"/>
<text text-anchor="middle" x="73.5" y="-294.8" font-family="Times New Roman,serif" font-size="14.00">start</text>
</g>
<!-- 2 -->
<g id="node3" class="node"><title>2</title>
<ellipse fill="none" stroke="black" cx="18" cy="-168" rx="18" ry="18"/>
<text text-anchor="middle" x="18" y="-164.3" font-family="Times New Roman,serif" font-size="14.00">2</text>
</g>
<!-- 1&#45;&gt;2 -->
<g id="edge2" class="edge"><title>1&#45;&gt;2</title>
<path fill="none" stroke="black" d="M45.7698,-244.613C37.2215,-238.46 27.2465,-229.6 22,-219 18.5474,-212.025 17.018,-203.826 16.4898,-196.107"/>
<polygon fill="black" stroke="black" points="19.988,-195.974 16.3035,-186.041 12.9892,-196.104 19.988,-195.974"/>
<text text-anchor="middle" x="25.5" y="-207.8" font-family="Times New Roman,serif" font-size="14.00">a</text>
</g>
<!-- 3 -->
<g id="node4" class="node"><title>3</title>
<ellipse fill="none" stroke="green" cx="61" cy="-77" rx="18" ry="18"/>
<ellipse fill="none" stroke="green" cx="61" cy="-77" rx="22" ry="22"/>
<text text-anchor="middle" x="61" y="-73.3" font-family="Times New Roman,serif" font-size="14.00">3</text>
</g>
<!-- 1&#45;&gt;3 -->
<g id="edge3" class="edge"><title>1&#45;&gt;3</title>
<path fill="none" stroke="black" d="M61,-236.804C61,-207.282 61,-146.55 61,-109.338"/>
<polygon fill="black" stroke="black" points="64.5001,-109.058 61,-99.0583 57.5001,-109.058 64.5001,-109.058"/>
<text text-anchor="middle" x="65" y="-164.3" font-family="Times New Roman,serif" font-size="14.00">b</text>
</g>
<!-- 2&#45;&gt;1 -->
<g id="edge4" class="edge"><title>2&#45;&gt;1</title>
<path fill="none" stroke="black" d="M25.8369,-184.491C32.1871,-197.044 41.2527,-214.965 48.5883,-229.465"/>
<polygon fill="black" stroke="black" points="45.4759,-231.066 53.1131,-238.41 51.7221,-227.907 45.4759,-231.066"/>
<text text-anchor="middle" x="45.5" y="-207.8" font-family="Times New Roman,serif" font-size="14.00">a</text>
</g>
<!-- 2&#45;&gt;3 -->
<g id="edge5" class="edge"><title>2&#45;&gt;3</title>
<path fill="none" stroke="black" d="M16.0474,-150.057C15.5975,-140.014 16.2976,-127.281 21,-117 24.404,-109.558 29.9093,-102.785 35.761,-97.0487"/>
<polygon fill="black" stroke="black" points="38.111,-99.6425 43.2264,-90.3644 33.4416,-94.4275 38.111,-99.6425"/>
<text text-anchor="middle" x="25" y="-120.8" font-family="Times New Roman,serif" font-size="14.00">b</text>
</g>
<!-- 3&#45;&gt;1 -->
<g id="edge6" class="edge"><title>3&#45;&gt;1</title>
<path fill="none" stroke="black" d="M69.478,-97.4818C71.7378,-103.609 73.8651,-110.48 75,-117 82.7734,-161.662 83.5729,-174.485 75,-219 74.3688,-222.277 73.4335,-225.638 72.3403,-228.919"/>
<polygon fill="black" stroke="black" points="69.0336,-227.767 68.733,-238.358 75.5724,-230.266 69.0336,-227.767"/>
<text text-anchor="middle" x="85" y="-164.3" font-family="Times New Roman,serif" font-size="14.00">b</text>
</g>
<!-- 3&#45;&gt;2 -->
<g id="edge7" class="edge"><title>3&#45;&gt;2</title>
<path fill="none" stroke="black" d="M51.8018,-97.0381C45.4239,-110.239 36.8691,-127.945 29.9618,-142.242"/>
<polygon fill="black" stroke="black" points="26.6889,-140.971 25.49,-151.497 32.9919,-144.016 26.6889,-140.971"/>
<text text-anchor="middle" x="45.5" y="-120.8" font-family="Times New Roman,serif" font-size="14.00">a</text>
</g>
</g>
</svg>
