<?xml version="1.0" encoding="UTF-8" standalone="no"?>
<!DOCTYPE svg PUBLIC "-//W3C//DTD SVG 1.1//EN"
 "http://www.w3.org/Graphics/SVG/1.1/DTD/svg11.dtd">
<!-- Generated by graphviz version 2.38.0 (20140413.2041)
 -->
<!-- Title: %3 Pages: 1 -->
<svg width="77pt" height="249pt"
 viewBox="0.00 0.00 77.00 248.60" xmlns="http://www.w3.org/2000/svg" xmlns:xlink="http://www.w3.org/1999/xlink">
<g id="graph0" class="graph" transform="scale(1 1) rotate(0) translate(4 244.6)">
<title>%3</title>
<polygon fill="white" stroke="none" points="-4,4 -4,-244.6 73,-244.6 73,4 -4,4"/>
<text text-anchor="middle" x="34.5" y="-7.8" font-family="Times,serif" font-size="14.00">test</text>
<!-- qi -->
<g id="node1" class="node"><title>qi</title>
<ellipse fill="black" stroke="black" cx="22" cy="-238.8" rx="1.8" ry="1.8"/>
</g>
<!-- 1 -->
<g id="node2" class="node"><title>1</title>
<ellipse fill="none" stroke="black" cx="22" cy="-168" rx="18" ry="18"/>
<text text-anchor="middle" x="22" y="-164.3" font-family="Times,serif" font-size="14.00">1</text>
</g>
<!-- qi&#45;&gt;1 -->
<g id="edge1" class="edge"><title>qi&#45;&gt;1</title>
<path fill="none" stroke="black" d="M22,-236.827C22,-232.337 22,-213.111 22,-196.269"/>
<polygon fill="black" stroke="black" points="25.5001,-196.245 22,-186.245 18.5001,-196.245 25.5001,-196.245"/>
<text text-anchor="middle" x="34" y="-207.8" font-family="Times,serif" font-size="14.00">start</text>
</g>
<!-- 1&#45;&gt;1 -->
<g id="edge5" class="edge"><title>1&#45;&gt;1</title>
<path fill="none" stroke="black" d="M38.6641,-175.383C48.625,-177.023 58,-174.562 58,-168 58,-163.796 54.1525,-161.275 48.7682,-160.438"/>
<polygon fill="black" stroke="black" points="48.6002,-156.94 38.6641,-160.617 48.7247,-163.939 48.6002,-156.94"/>
<text text-anchor="middle" x="61.5" y="-164.3" font-family="Times,serif" font-size="14.00">a</text>
</g>
<!-- 2 -->
<g id="node3" class="node"><title>2</title>
<ellipse fill="none" stroke="green" cx="22" cy="-77" rx="18" ry="18"/>
<ellipse fill="none" stroke="green" cx="22" cy="-77" rx="22" ry="22"/>
<text text-anchor="middle" x="22" y="-73.3" font-family="Times,serif" font-size="14.00">2</text>
</g>
<!-- 1&#45;&gt;2 -->
<g id="edge4" class="edge"><title>1&#45;&gt;2</title>
<path fill="none" stroke="black" d="M15.8003,-150.863C13.8558,-145.014 11.966,-138.296 11,-132 9.78925,-124.109 10.5363,-115.626 12.0934,-107.774"/>
<polygon fill="black" stroke="black" points="15.5276,-108.466 14.5107,-97.9196 8.72914,-106.798 15.5276,-108.466"/>
<text text-anchor="middle" x="14.5" y="-120.8" font-family="Times,serif" font-size="14.00">b</text>
</g>
<!-- 2&#45;&gt;1 -->
<g id="edge3" class="edge"><title>2&#45;&gt;1</title>
<path fill="none" stroke="black" d="M22,-99.1905C22,-111.284 22,-126.578 22,-139.579"/>
<polygon fill="black" stroke="black" points="18.5001,-139.84 22,-149.84 25.5001,-139.84 18.5001,-139.84"/>
<text text-anchor="middle" x="25.5" y="-120.8" font-family="Times,serif" font-size="14.00">b</text>
</g>
<!-- 2&#45;&gt;2 -->
<g id="edge2" class="edge"><title>2&#45;&gt;2</title>
<path fill="none" stroke="black" d="M42.5808,-85.3702C52.8447,-86.5284 62,-83.7383 62,-77 62,-72.6833 58.2427,-69.9869 52.8436,-68.9109"/>
<polygon fill="black" stroke="black" points="52.6729,-65.405 42.5808,-68.6298 52.4812,-72.4024 52.6729,-65.405"/>
<text text-anchor="middle" x="65.5" y="-73.3" font-family="Times,serif" font-size="14.00">a</text>
</g>
</g>
</svg>
