<?xml version="1.0" encoding="UTF-8" standalone="no"?>
<!DOCTYPE svg PUBLIC "-//W3C//DTD SVG 1.1//EN"
 "http://www.w3.org/Graphics/SVG/1.1/DTD/svg11.dtd">
<!-- Generated by graphviz version 2.38.0 (20140413.2041)
 -->
<!-- Title: %3 Pages: 1 -->
<svg width="171pt" height="597pt"
 viewBox="0.00 0.00 171.00 596.60" xmlns="http://www.w3.org/2000/svg" xmlns:xlink="http://www.w3.org/1999/xlink">
<g id="graph0" class="graph" transform="scale(1 1) rotate(0) translate(4 592.6)">
<title>%3</title>
<polygon fill="white" stroke="none" points="-4,4 -4,-592.6 167,-592.6 167,4 -4,4"/>
<text text-anchor="middle" x="81.5" y="-7.8" font-family="Times,serif" font-size="14.00">(a+b)*</text>
<!-- qi -->
<g id="node1" class="node"><title>qi</title>
<ellipse fill="black" stroke="black" cx="132" cy="-586.8" rx="1.8" ry="1.8"/>
</g>
<!-- 1 -->
<g id="node2" class="node"><title>1</title>
<ellipse fill="none" stroke="black" cx="132" cy="-516" rx="18" ry="18"/>
<text text-anchor="middle" x="132" y="-512.3" font-family="Times,serif" font-size="14.00">1</text>
</g>
<!-- qi&#45;&gt;1 -->
<g id="edge1" class="edge"><title>qi&#45;&gt;1</title>
<path fill="none" stroke="black" d="M132,-584.827C132,-580.337 132,-561.111 132,-544.269"/>
<polygon fill="black" stroke="black" points="135.5,-544.245 132,-534.245 128.5,-544.245 135.5,-544.245"/>
<text text-anchor="middle" x="144" y="-555.8" font-family="Times,serif" font-size="14.00">start</text>
</g>
<!-- 2 -->
<g id="node3" class="node"><title>2</title>
<ellipse fill="none" stroke="black" cx="96" cy="-429" rx="18" ry="18"/>
<text text-anchor="middle" x="96" y="-425.3" font-family="Times,serif" font-size="14.00">2</text>
</g>
<!-- 1&#45;&gt;2 -->
<g id="edge3" class="edge"><title>1&#45;&gt;2</title>
<path fill="none" stroke="black" d="M125.229,-499.012C119.999,-486.665 112.665,-469.347 106.651,-455.148"/>
<polygon fill="black" stroke="black" points="109.864,-453.759 102.741,-445.916 103.418,-456.489 109.864,-453.759"/>
<text text-anchor="middle" x="119.5" y="-468.8" font-family="Times,serif" font-size="14.00">ε</text>
</g>
<!-- 8 -->
<g id="node9" class="node"><title>8</title>
<ellipse fill="none" stroke="green" cx="132" cy="-77" rx="18" ry="18"/>
<ellipse fill="none" stroke="green" cx="132" cy="-77" rx="22" ry="22"/>
<text text-anchor="middle" x="132" y="-73.3" font-family="Times,serif" font-size="14.00">8</text>
</g>
<!-- 1&#45;&gt;8 -->
<g id="edge2" class="edge"><title>1&#45;&gt;8</title>
<path fill="none" stroke="black" d="M139.201,-499.393C146.27,-482.62 156,-454.994 156,-430 156,-430 156,-430 156,-167 156,-146.398 149.931,-124.01 143.897,-106.842"/>
<polygon fill="black" stroke="black" points="147.151,-105.551 140.394,-97.3905 140.587,-107.984 147.151,-105.551"/>
<text text-anchor="middle" x="159.5" y="-294.8" font-family="Times,serif" font-size="14.00">ε</text>
</g>
<!-- 3 -->
<g id="node4" class="node"><title>3</title>
<ellipse fill="none" stroke="black" cx="18" cy="-342" rx="18" ry="18"/>
<text text-anchor="middle" x="18" y="-338.3" font-family="Times,serif" font-size="14.00">3</text>
</g>
<!-- 2&#45;&gt;3 -->
<g id="edge4" class="edge"><title>2&#45;&gt;3</title>
<path fill="none" stroke="black" d="M84.1535,-415.09C71.5966,-401.407 51.5842,-379.598 36.8555,-363.548"/>
<polygon fill="black" stroke="black" points="39.0424,-360.754 29.7024,-355.753 33.8848,-365.487 39.0424,-360.754"/>
<text text-anchor="middle" x="65.5" y="-381.8" font-family="Times,serif" font-size="14.00">ε</text>
</g>
<!-- 5 -->
<g id="node6" class="node"><title>5</title>
<ellipse fill="none" stroke="black" cx="72" cy="-342" rx="18" ry="18"/>
<text text-anchor="middle" x="72" y="-338.3" font-family="Times,serif" font-size="14.00">5</text>
</g>
<!-- 2&#45;&gt;5 -->
<g id="edge5" class="edge"><title>2&#45;&gt;5</title>
<path fill="none" stroke="black" d="M91.2584,-411.207C87.8837,-399.255 83.2823,-382.958 79.4236,-369.292"/>
<polygon fill="black" stroke="black" points="82.7358,-368.142 76.6501,-359.469 75.9992,-370.044 82.7358,-368.142"/>
<text text-anchor="middle" x="88.5" y="-381.8" font-family="Times,serif" font-size="14.00">ε</text>
</g>
<!-- 4 -->
<g id="node5" class="node"><title>4</title>
<ellipse fill="none" stroke="black" cx="18" cy="-255" rx="18" ry="18"/>
<text text-anchor="middle" x="18" y="-251.3" font-family="Times,serif" font-size="14.00">4</text>
</g>
<!-- 3&#45;&gt;4 -->
<g id="edge6" class="edge"><title>3&#45;&gt;4</title>
<path fill="none" stroke="black" d="M18,-323.799C18,-312.163 18,-296.548 18,-283.237"/>
<polygon fill="black" stroke="black" points="21.5001,-283.175 18,-273.175 14.5001,-283.175 21.5001,-283.175"/>
<text text-anchor="middle" x="21.5" y="-294.8" font-family="Times,serif" font-size="14.00">a</text>
</g>
<!-- 7 -->
<g id="node8" class="node"><title>7</title>
<ellipse fill="none" stroke="black" cx="96" cy="-168" rx="18" ry="18"/>
<text text-anchor="middle" x="96" y="-164.3" font-family="Times,serif" font-size="14.00">7</text>
</g>
<!-- 4&#45;&gt;7 -->
<g id="edge7" class="edge"><title>4&#45;&gt;7</title>
<path fill="none" stroke="black" d="M29.8465,-241.09C42.4034,-227.407 62.4158,-205.598 77.1445,-189.548"/>
<polygon fill="black" stroke="black" points="80.1152,-191.487 84.2976,-181.753 74.9576,-186.754 80.1152,-191.487"/>
<text text-anchor="middle" x="65.5" y="-207.8" font-family="Times,serif" font-size="14.00">ε</text>
</g>
<!-- 6 -->
<g id="node7" class="node"><title>6</title>
<ellipse fill="none" stroke="black" cx="72" cy="-255" rx="18" ry="18"/>
<text text-anchor="middle" x="72" y="-251.3" font-family="Times,serif" font-size="14.00">6</text>
</g>
<!-- 5&#45;&gt;6 -->
<g id="edge8" class="edge"><title>5&#45;&gt;6</title>
<path fill="none" stroke="black" d="M72,-323.799C72,-312.163 72,-296.548 72,-283.237"/>
<polygon fill="black" stroke="black" points="75.5001,-283.175 72,-273.175 68.5001,-283.175 75.5001,-283.175"/>
<text text-anchor="middle" x="75.5" y="-294.8" font-family="Times,serif" font-size="14.00">b</text>
</g>
<!-- 6&#45;&gt;7 -->
<g id="edge9" class="edge"><title>6&#45;&gt;7</title>
<path fill="none" stroke="black" d="M76.7416,-237.207C80.1163,-225.255 84.7177,-208.958 88.5764,-195.292"/>
<polygon fill="black" stroke="black" points="92.0008,-196.044 91.3499,-185.469 85.2642,-194.142 92.0008,-196.044"/>
<text text-anchor="middle" x="88.5" y="-207.8" font-family="Times,serif" font-size="14.00">ε</text>
</g>
<!-- 7&#45;&gt;2 -->
<g id="edge11" class="edge"><title>7&#45;&gt;2</title>
<path fill="none" stroke="black" d="M96.9602,-186.04C97.6848,-199.79 98.6171,-219.633 99,-237 100.205,-291.653 100.205,-305.347 99,-360 98.7038,-373.432 98.079,-388.346 97.4759,-400.776"/>
<polygon fill="black" stroke="black" points="93.9705,-400.796 96.9602,-410.96 100.962,-401.15 93.9705,-400.796"/>
<text text-anchor="middle" x="102.5" y="-294.8" font-family="Times,serif" font-size="14.00">ε</text>
</g>
<!-- 7&#45;&gt;8 -->
<g id="edge10" class="edge"><title>7&#45;&gt;8</title>
<path fill="none" stroke="black" d="M102.436,-151.089C107.333,-138.983 114.21,-121.981 120.099,-107.422"/>
<polygon fill="black" stroke="black" points="123.477,-108.406 123.982,-97.8228 116.987,-105.781 123.477,-108.406"/>
<text text-anchor="middle" x="119.5" y="-120.8" font-family="Times,serif" font-size="14.00">ε</text>
</g>
</g>
</svg>
