<?xml version="1.0" encoding="UTF-8" standalone="no"?>
<!DOCTYPE svg PUBLIC "-//W3C//DTD SVG 1.1//EN"
 "http://www.w3.org/Graphics/SVG/1.1/DTD/svg11.dtd">
<!-- Generated by graphviz version 2.40.1 (20161225.0304)
 -->
<!-- Title: %3 Pages: 1 -->
<svg width="171pt" height="597pt"
 viewBox="0.00 0.00 171.00 596.60" xmlns="http://www.w3.org/2000/svg" xmlns:xlink="http://www.w3.org/1999/xlink">
<g id="graph0" class="graph" transform="scale(1 1) rotate(0) translate(4 592.6)">
<title>%3</title>
<polygon fill="#ffffff" stroke="transparent" points="-4,4 -4,-592.6 167,-592.6 167,4 -4,4"/>
<text text-anchor="middle" x="81.5" y="-7.8" font-family="Times,serif" font-size="14.00" fill="#000000">(a+b)*</text>
<!-- qi -->
<g id="node1" class="node">
<title>qi</title>
<ellipse fill="#000000" stroke="#000000" cx="133" cy="-586.8" rx="1.8" ry="1.8"/>
</g>
<!-- 1 -->
<g id="node2" class="node">
<title>1</title>
<ellipse fill="none" stroke="#000000" cx="133" cy="-516" rx="18" ry="18"/>
<text text-anchor="middle" x="133" y="-512.3" font-family="Times,serif" font-size="14.00" fill="#000000">1</text>
</g>
<!-- qi&#45;&gt;1 -->
<g id="edge1" class="edge">
<title>qi&#45;&gt;1</title>
<path fill="none" stroke="#000000" d="M133,-584.7574C133,-578.7315 133,-560.4337 133,-544.2287"/>
<polygon fill="#000000" stroke="#000000" points="136.5001,-544.0318 133,-534.0318 129.5001,-544.0319 136.5001,-544.0318"/>
<text text-anchor="middle" x="145" y="-555.8" font-family="Times,serif" font-size="14.00" fill="#000000">start</text>
</g>
<!-- 2 -->
<g id="node3" class="node">
<title>2</title>
<ellipse fill="none" stroke="#000000" cx="97" cy="-429" rx="18" ry="18"/>
<text text-anchor="middle" x="97" y="-425.3" font-family="Times,serif" font-size="14.00" fill="#000000">2</text>
</g>
<!-- 1&#45;&gt;2 -->
<g id="edge2" class="edge">
<title>1&#45;&gt;2</title>
<path fill="none" stroke="#000000" d="M126.0588,-499.2255C120.8793,-486.7084 113.7052,-469.371 107.7814,-455.055"/>
<polygon fill="#000000" stroke="#000000" points="110.9775,-453.6249 103.9199,-445.723 104.5094,-456.3014 110.9775,-453.6249"/>
<text text-anchor="middle" x="120.5" y="-468.8" font-family="Times,serif" font-size="14.00" fill="#000000">ε</text>
</g>
<!-- 8 -->
<g id="node9" class="node">
<title>8</title>
<ellipse fill="none" stroke="#00ff00" cx="133" cy="-77" rx="18" ry="18"/>
<ellipse fill="none" stroke="#00ff00" cx="133" cy="-77" rx="22" ry="22"/>
<text text-anchor="middle" x="133" y="-73.3" font-family="Times,serif" font-size="14.00" fill="#000000">8</text>
</g>
<!-- 1&#45;&gt;8 -->
<g id="edge3" class="edge">
<title>1&#45;&gt;8</title>
<path fill="none" stroke="#000000" d="M140.1513,-499.3411C146.903,-482.0789 156,-454.1531 156,-429 156,-429 156,-429 156,-168 156,-147.2946 150.3339,-124.725 144.6263,-107.2425"/>
<polygon fill="#000000" stroke="#000000" points="147.8678,-105.9058 141.3035,-97.5895 141.249,-108.1842 147.8678,-105.9058"/>
<text text-anchor="middle" x="159.5" y="-294.8" font-family="Times,serif" font-size="14.00" fill="#000000">ε</text>
</g>
<!-- 3 -->
<g id="node4" class="node">
<title>3</title>
<ellipse fill="none" stroke="#000000" cx="18" cy="-342" rx="18" ry="18"/>
<text text-anchor="middle" x="18" y="-338.3" font-family="Times,serif" font-size="14.00" fill="#000000">3</text>
</g>
<!-- 2&#45;&gt;3 -->
<g id="edge6" class="edge">
<title>2&#45;&gt;3</title>
<path fill="none" stroke="#000000" d="M84.6563,-415.4063C71.9019,-401.3603 51.8261,-379.2515 37.0372,-362.965"/>
<polygon fill="#000000" stroke="#000000" points="39.5707,-360.5487 30.2571,-355.4983 34.3884,-365.2545 39.5707,-360.5487"/>
<text text-anchor="middle" x="66.5" y="-381.8" font-family="Times,serif" font-size="14.00" fill="#000000">ε</text>
</g>
<!-- 5 -->
<g id="node6" class="node">
<title>5</title>
<ellipse fill="none" stroke="#000000" cx="72" cy="-342" rx="18" ry="18"/>
<text text-anchor="middle" x="72" y="-338.3" font-family="Times,serif" font-size="14.00" fill="#000000">5</text>
</g>
<!-- 2&#45;&gt;5 -->
<g id="edge7" class="edge">
<title>2&#45;&gt;5</title>
<path fill="none" stroke="#000000" d="M91.9409,-411.3943C88.4845,-399.3661 83.8348,-383.1851 79.8947,-369.4737"/>
<polygon fill="#000000" stroke="#000000" points="83.1773,-368.224 77.0516,-359.5796 76.4496,-370.1573 83.1773,-368.224"/>
<text text-anchor="middle" x="88.5" y="-381.8" font-family="Times,serif" font-size="14.00" fill="#000000">ε</text>
</g>
<!-- 4 -->
<g id="node5" class="node">
<title>4</title>
<ellipse fill="none" stroke="#000000" cx="18" cy="-255" rx="18" ry="18"/>
<text text-anchor="middle" x="18" y="-251.3" font-family="Times,serif" font-size="14.00" fill="#000000">4</text>
</g>
<!-- 3&#45;&gt;4 -->
<g id="edge10" class="edge">
<title>3&#45;&gt;4</title>
<path fill="none" stroke="#000000" d="M18,-323.9735C18,-312.1918 18,-296.5607 18,-283.1581"/>
<polygon fill="#000000" stroke="#000000" points="21.5001,-283.0033 18,-273.0034 14.5001,-283.0034 21.5001,-283.0033"/>
<text text-anchor="middle" x="21.5" y="-294.8" font-family="Times,serif" font-size="14.00" fill="#000000">a</text>
</g>
<!-- 7 -->
<g id="node8" class="node">
<title>7</title>
<ellipse fill="none" stroke="#000000" cx="103" cy="-168" rx="18" ry="18"/>
<text text-anchor="middle" x="103" y="-164.3" font-family="Times,serif" font-size="14.00" fill="#000000">7</text>
</g>
<!-- 4&#45;&gt;7 -->
<g id="edge8" class="edge">
<title>4&#45;&gt;7</title>
<path fill="none" stroke="#000000" d="M30.9097,-241.7866C44.719,-227.6523 66.8027,-205.049 82.8927,-188.5805"/>
<polygon fill="#000000" stroke="#000000" points="85.7624,-190.6515 90.2473,-181.0527 80.7555,-185.7596 85.7624,-190.6515"/>
<text text-anchor="middle" x="69.5" y="-207.8" font-family="Times,serif" font-size="14.00" fill="#000000">ε</text>
</g>
<!-- 6 -->
<g id="node7" class="node">
<title>6</title>
<ellipse fill="none" stroke="#000000" cx="72" cy="-255" rx="18" ry="18"/>
<text text-anchor="middle" x="72" y="-251.3" font-family="Times,serif" font-size="14.00" fill="#000000">6</text>
</g>
<!-- 5&#45;&gt;6 -->
<g id="edge11" class="edge">
<title>5&#45;&gt;6</title>
<path fill="none" stroke="#000000" d="M72,-323.9735C72,-312.1918 72,-296.5607 72,-283.1581"/>
<polygon fill="#000000" stroke="#000000" points="75.5001,-283.0033 72,-273.0034 68.5001,-283.0034 75.5001,-283.0033"/>
<text text-anchor="middle" x="75.5" y="-294.8" font-family="Times,serif" font-size="14.00" fill="#000000">b</text>
</g>
<!-- 6&#45;&gt;7 -->
<g id="edge9" class="edge">
<title>6&#45;&gt;7</title>
<path fill="none" stroke="#000000" d="M78.1246,-237.8116C82.4979,-225.5383 88.4661,-208.7887 93.4604,-194.7725"/>
<polygon fill="#000000" stroke="#000000" points="96.8285,-195.7474 96.8881,-185.1527 90.2346,-193.3978 96.8285,-195.7474"/>
<text text-anchor="middle" x="92.5" y="-207.8" font-family="Times,serif" font-size="14.00" fill="#000000">ε</text>
</g>
<!-- 7&#45;&gt;2 -->
<g id="edge5" class="edge">
<title>7&#45;&gt;2</title>
<path fill="none" stroke="#000000" d="M102.6739,-186.0011C102.047,-220.003 100.594,-296.006 99,-360 98.6676,-373.3433 98.2459,-388.1364 97.8755,-400.5922"/>
<polygon fill="#000000" stroke="#000000" points="94.3695,-400.7405 97.5667,-410.8414 101.3664,-400.9514 94.3695,-400.7405"/>
<text text-anchor="middle" x="103.5" y="-294.8" font-family="Times,serif" font-size="14.00" fill="#000000">ε</text>
</g>
<!-- 7&#45;&gt;8 -->
<g id="edge4" class="edge">
<title>7&#45;&gt;8</title>
<path fill="none" stroke="#000000" d="M108.6428,-150.8836C112.6421,-138.7524 118.119,-122.1391 122.8664,-107.7384"/>
<polygon fill="#000000" stroke="#000000" points="126.2025,-108.7976 126.0095,-98.2045 119.5545,-106.6058 126.2025,-108.7976"/>
<text text-anchor="middle" x="122.5" y="-120.8" font-family="Times,serif" font-size="14.00" fill="#000000">ε</text>
</g>
</g>
</svg>
