<?xml version="1.0" encoding="UTF-8" standalone="no"?>
<!DOCTYPE svg PUBLIC "-//W3C//DTD SVG 1.1//EN"
 "http://www.w3.org/Graphics/SVG/1.1/DTD/svg11.dtd">
<!-- Generated by graphviz version 2.40.1 (20161225.0304)
 -->
<!-- Title: %3 Pages: 1 -->
<svg width="98pt" height="774pt"
 viewBox="0.00 0.00 98.00 773.60" xmlns="http://www.w3.org/2000/svg" xmlns:xlink="http://www.w3.org/1999/xlink">
<g id="graph0" class="graph" transform="scale(1 1) rotate(0) translate(4 769.5965)">
<title>%3</title>
<polygon fill="#ffffff" stroke="transparent" points="-4,4 -4,-769.5965 94,-769.5965 94,4 -4,4"/>
<text text-anchor="middle" x="45" y="-7.8" font-family="Times,serif" font-size="14.00" fill="#000000">a*(a+b)</text>
<!-- qi -->
<g id="node1" class="node">
<title>qi</title>
<ellipse fill="#000000" stroke="#000000" cx="45" cy="-763.7965" rx="1.8" ry="1.8"/>
</g>
<!-- 1 -->
<g id="node2" class="node">
<title>1</title>
<ellipse fill="none" stroke="#000000" cx="45" cy="-692.9965" rx="18" ry="18"/>
<text text-anchor="middle" x="45" y="-689.2965" font-family="Times,serif" font-size="14.00" fill="#000000">1</text>
</g>
<!-- qi&#45;&gt;1 -->
<g id="edge1" class="edge">
<title>qi&#45;&gt;1</title>
<path fill="none" stroke="#000000" d="M45,-761.754C45,-755.728 45,-737.4303 45,-721.2252"/>
<polygon fill="#000000" stroke="#000000" points="48.5001,-721.0283 45,-711.0284 41.5001,-721.0284 48.5001,-721.0283"/>
<text text-anchor="middle" x="57" y="-732.7965" font-family="Times,serif" font-size="14.00" fill="#000000">start</text>
</g>
<!-- 2 -->
<g id="node3" class="node">
<title>2</title>
<ellipse fill="none" stroke="#000000" cx="22" cy="-605.9965" rx="18" ry="18"/>
<text text-anchor="middle" x="22" y="-602.2965" font-family="Times,serif" font-size="14.00" fill="#000000">2</text>
</g>
<!-- 1&#45;&gt;2 -->
<g id="edge3" class="edge">
<title>1&#45;&gt;2</title>
<path fill="none" stroke="#000000" d="M40.3456,-675.3908C37.1658,-663.3627 32.888,-647.1816 29.2632,-633.4702"/>
<polygon fill="#000000" stroke="#000000" points="32.5872,-632.3494 26.6475,-623.5761 25.8197,-634.1385 32.5872,-632.3494"/>
<text text-anchor="middle" x="37.5" y="-645.7965" font-family="Times,serif" font-size="14.00" fill="#000000">ε</text>
</g>
<!-- 4 -->
<g id="node5" class="node">
<title>4</title>
<ellipse fill="none" stroke="#000000" cx="45" cy="-431.9965" rx="18" ry="18"/>
<text text-anchor="middle" x="45" y="-428.2965" font-family="Times,serif" font-size="14.00" fill="#000000">4</text>
</g>
<!-- 1&#45;&gt;4 -->
<g id="edge4" class="edge">
<title>1&#45;&gt;4</title>
<path fill="none" stroke="#000000" d="M46.3397,-674.8493C47.2967,-660.9413 48.4998,-641.2683 49,-623.9965 50.5825,-569.3528 50.5825,-555.6403 49,-500.9965 48.6131,-487.6379 47.8058,-472.8428 47.017,-460.3896"/>
<polygon fill="#000000" stroke="#000000" points="50.4918,-459.8911 46.3397,-450.1437 43.507,-460.3529 50.4918,-459.8911"/>
<text text-anchor="middle" x="53.5" y="-558.7965" font-family="Times,serif" font-size="14.00" fill="#000000">ε</text>
</g>
<!-- 3 -->
<g id="node4" class="node">
<title>3</title>
<ellipse fill="none" stroke="#000000" cx="22" cy="-518.9965" rx="18" ry="18"/>
<text text-anchor="middle" x="22" y="-515.2965" font-family="Times,serif" font-size="14.00" fill="#000000">3</text>
</g>
<!-- 2&#45;&gt;3 -->
<g id="edge7" class="edge">
<title>2&#45;&gt;3</title>
<path fill="none" stroke="#000000" d="M15.683,-589.0229C13.7799,-583.091 11.9461,-576.3308 11,-569.9965 9.8091,-562.0236 10.7757,-553.4302 12.5437,-545.6114"/>
<polygon fill="#000000" stroke="#000000" points="15.9384,-546.4666 15.2154,-535.8965 9.189,-544.6104 15.9384,-546.4666"/>
<text text-anchor="middle" x="14.5" y="-558.7965" font-family="Times,serif" font-size="14.00" fill="#000000">a</text>
</g>
<!-- 3&#45;&gt;2 -->
<g id="edge6" class="edge">
<title>3&#45;&gt;2</title>
<path fill="none" stroke="#000000" d="M22,-536.9999C22,-548.7766 22,-564.4067 22,-577.8122"/>
<polygon fill="#000000" stroke="#000000" points="18.5001,-577.97 22,-587.9701 25.5001,-577.9701 18.5001,-577.97"/>
<text text-anchor="middle" x="25.5" y="-558.7965" font-family="Times,serif" font-size="14.00" fill="#000000">ε</text>
</g>
<!-- 3&#45;&gt;4 -->
<g id="edge5" class="edge">
<title>3&#45;&gt;4</title>
<path fill="none" stroke="#000000" d="M26.6544,-501.3908C29.8342,-489.3627 34.112,-473.1816 37.7368,-459.4702"/>
<polygon fill="#000000" stroke="#000000" points="41.1803,-460.1385 40.3525,-449.5761 34.4128,-458.3494 41.1803,-460.1385"/>
<text text-anchor="middle" x="37.5" y="-471.7965" font-family="Times,serif" font-size="14.00" fill="#000000">ε</text>
</g>
<!-- 5 -->
<g id="node6" class="node">
<title>5</title>
<ellipse fill="none" stroke="#000000" cx="45" cy="-344.9965" rx="18" ry="18"/>
<text text-anchor="middle" x="45" y="-341.2965" font-family="Times,serif" font-size="14.00" fill="#000000">5</text>
</g>
<!-- 4&#45;&gt;5 -->
<g id="edge2" class="edge">
<title>4&#45;&gt;5</title>
<path fill="none" stroke="#000000" d="M45,-413.9701C45,-402.1883 45,-386.5572 45,-373.1546"/>
<polygon fill="#000000" stroke="#000000" points="48.5001,-372.9999 45,-362.9999 41.5001,-372.9999 48.5001,-372.9999"/>
<text text-anchor="middle" x="48.5" y="-384.7965" font-family="Times,serif" font-size="14.00" fill="#000000">ε</text>
</g>
<!-- 6 -->
<g id="node7" class="node">
<title>6</title>
<ellipse fill="none" stroke="#000000" cx="18" cy="-257.9965" rx="18" ry="18"/>
<text text-anchor="middle" x="18" y="-254.2965" font-family="Times,serif" font-size="14.00" fill="#000000">6</text>
</g>
<!-- 5&#45;&gt;6 -->
<g id="edge8" class="edge">
<title>5&#45;&gt;6</title>
<path fill="none" stroke="#000000" d="M39.5361,-327.3908C35.7787,-315.2835 30.7155,-298.9685 26.4424,-285.1999"/>
<polygon fill="#000000" stroke="#000000" points="29.6704,-283.7924 23.3636,-275.2792 22.9849,-285.8673 29.6704,-283.7924"/>
<text text-anchor="middle" x="36.5" y="-297.7965" font-family="Times,serif" font-size="14.00" fill="#000000">ε</text>
</g>
<!-- 8 -->
<g id="node9" class="node">
<title>8</title>
<ellipse fill="none" stroke="#000000" cx="72" cy="-257.9965" rx="18" ry="18"/>
<text text-anchor="middle" x="72" y="-254.2965" font-family="Times,serif" font-size="14.00" fill="#000000">8</text>
</g>
<!-- 5&#45;&gt;8 -->
<g id="edge9" class="edge">
<title>5&#45;&gt;8</title>
<path fill="none" stroke="#000000" d="M50.4639,-327.3908C54.2213,-315.2835 59.2845,-298.9685 63.5576,-285.1999"/>
<polygon fill="#000000" stroke="#000000" points="67.0151,-285.8673 66.6364,-275.2792 60.3296,-283.7924 67.0151,-285.8673"/>
<text text-anchor="middle" x="63.5" y="-297.7965" font-family="Times,serif" font-size="14.00" fill="#000000">ε</text>
</g>
<!-- 7 -->
<g id="node8" class="node">
<title>7</title>
<ellipse fill="none" stroke="#000000" cx="18" cy="-170.9965" rx="18" ry="18"/>
<text text-anchor="middle" x="18" y="-167.2965" font-family="Times,serif" font-size="14.00" fill="#000000">7</text>
</g>
<!-- 6&#45;&gt;7 -->
<g id="edge12" class="edge">
<title>6&#45;&gt;7</title>
<path fill="none" stroke="#000000" d="M18,-239.9701C18,-228.1883 18,-212.5572 18,-199.1546"/>
<polygon fill="#000000" stroke="#000000" points="21.5001,-198.9999 18,-188.9999 14.5001,-198.9999 21.5001,-198.9999"/>
<text text-anchor="middle" x="21.5" y="-210.7965" font-family="Times,serif" font-size="14.00" fill="#000000">a</text>
</g>
<!-- 10 -->
<g id="node11" class="node">
<title>10</title>
<ellipse fill="none" stroke="#00ff00" cx="45" cy="-78.4983" rx="19.4968" ry="19.4968"/>
<ellipse fill="none" stroke="#00ff00" cx="45" cy="-78.4983" rx="23.4965" ry="23.4965"/>
<text text-anchor="middle" x="45" y="-74.7983" font-family="Times,serif" font-size="14.00" fill="#000000">10</text>
</g>
<!-- 7&#45;&gt;10 -->
<g id="edge10" class="edge">
<title>7&#45;&gt;10</title>
<path fill="none" stroke="#000000" d="M23.0785,-153.5983C26.5695,-141.6386 31.3115,-125.3933 35.4922,-111.0708"/>
<polygon fill="#000000" stroke="#000000" points="38.9689,-111.6506 38.4112,-101.0704 32.2493,-109.6891 38.9689,-111.6506"/>
<text text-anchor="middle" x="35.5" y="-123.7965" font-family="Times,serif" font-size="14.00" fill="#000000">ε</text>
</g>
<!-- 9 -->
<g id="node10" class="node">
<title>9</title>
<ellipse fill="none" stroke="#000000" cx="72" cy="-170.9965" rx="18" ry="18"/>
<text text-anchor="middle" x="72" y="-167.2965" font-family="Times,serif" font-size="14.00" fill="#000000">9</text>
</g>
<!-- 8&#45;&gt;9 -->
<g id="edge13" class="edge">
<title>8&#45;&gt;9</title>
<path fill="none" stroke="#000000" d="M72,-239.9701C72,-228.1883 72,-212.5572 72,-199.1546"/>
<polygon fill="#000000" stroke="#000000" points="75.5001,-198.9999 72,-188.9999 68.5001,-198.9999 75.5001,-198.9999"/>
<text text-anchor="middle" x="75.5" y="-210.7965" font-family="Times,serif" font-size="14.00" fill="#000000">b</text>
</g>
<!-- 9&#45;&gt;10 -->
<g id="edge11" class="edge">
<title>9&#45;&gt;10</title>
<path fill="none" stroke="#000000" d="M66.9215,-153.5983C63.4305,-141.6386 58.6885,-125.3933 54.5078,-111.0708"/>
<polygon fill="#000000" stroke="#000000" points="57.7507,-109.6891 51.5888,-101.0704 51.0311,-111.6506 57.7507,-109.6891"/>
<text text-anchor="middle" x="63.5" y="-123.7965" font-family="Times,serif" font-size="14.00" fill="#000000">ε</text>
</g>
</g>
</svg>
