<?xml version="1.0" encoding="UTF-8" standalone="no"?>
<!DOCTYPE svg PUBLIC "-//W3C//DTD SVG 1.1//EN"
 "http://www.w3.org/Graphics/SVG/1.1/DTD/svg11.dtd">
<!-- Generated by graphviz version 2.40.1 (20161225.0304)
 -->
<!-- Title: %3 Pages: 1 -->
<svg width="111pt" height="336pt"
 viewBox="0.00 0.00 111.00 335.60" xmlns="http://www.w3.org/2000/svg" xmlns:xlink="http://www.w3.org/1999/xlink">
<g id="graph0" class="graph" transform="scale(1 1) rotate(0) translate(4 331.6)">
<title>%3</title>
<polygon fill="#ffffff" stroke="transparent" points="-4,4 -4,-331.6 107,-331.6 107,4 -4,4"/>
<text text-anchor="middle" x="51.5" y="-7.8" font-family="Times,serif" font-size="14.00" fill="#000000">(a*(bb)a*)*(bb)</text>
<!-- qi -->
<g id="node1" class="node">
<title>qi</title>
<ellipse fill="#000000" stroke="#000000" cx="39" cy="-325.8" rx="1.8" ry="1.8"/>
</g>
<!-- 1 -->
<g id="node2" class="node">
<title>1</title>
<ellipse fill="none" stroke="#000000" cx="39" cy="-255" rx="18" ry="18"/>
<text text-anchor="middle" x="39" y="-251.3" font-family="Times,serif" font-size="14.00" fill="#000000">1</text>
</g>
<!-- qi&#45;&gt;1 -->
<g id="edge1" class="edge">
<title>qi&#45;&gt;1</title>
<path fill="none" stroke="#000000" d="M39,-323.7574C39,-317.7315 39,-299.4337 39,-283.2287"/>
<polygon fill="#000000" stroke="#000000" points="42.5001,-283.0318 39,-273.0318 35.5001,-283.0319 42.5001,-283.0318"/>
<text text-anchor="middle" x="51" y="-294.8" font-family="Times,serif" font-size="14.00" fill="#000000">start</text>
</g>
<!-- 1&#45;&gt;1 -->
<g id="edge2" class="edge">
<title>1&#45;&gt;1</title>
<path fill="none" stroke="#000000" d="M55.6641,-262.3828C65.625,-264.0234 75,-261.5625 75,-255 75,-250.7959 71.1525,-248.2751 65.7682,-247.4375"/>
<polygon fill="#000000" stroke="#000000" points="65.6002,-243.9399 55.6641,-247.6172 65.7247,-250.9388 65.6002,-243.9399"/>
<text text-anchor="middle" x="78.5" y="-251.3" font-family="Times,serif" font-size="14.00" fill="#000000">a</text>
</g>
<!-- 2 -->
<g id="node3" class="node">
<title>2</title>
<ellipse fill="none" stroke="#000000" cx="39" cy="-168" rx="18" ry="18"/>
<text text-anchor="middle" x="39" y="-164.3" font-family="Times,serif" font-size="14.00" fill="#000000">2</text>
</g>
<!-- 1&#45;&gt;2 -->
<g id="edge3" class="edge">
<title>1&#45;&gt;2</title>
<path fill="none" stroke="#000000" d="M39,-236.9735C39,-225.1918 39,-209.5607 39,-196.1581"/>
<polygon fill="#000000" stroke="#000000" points="42.5001,-196.0033 39,-186.0034 35.5001,-196.0034 42.5001,-196.0033"/>
<text text-anchor="middle" x="42.5" y="-207.8" font-family="Times,serif" font-size="14.00" fill="#000000">b</text>
</g>
<!-- 3 -->
<g id="node4" class="node">
<title>3</title>
<ellipse fill="none" stroke="#00ff00" cx="39" cy="-77" rx="18" ry="18"/>
<ellipse fill="none" stroke="#00ff00" cx="39" cy="-77" rx="22" ry="22"/>
<text text-anchor="middle" x="39" y="-73.3" font-family="Times,serif" font-size="14.00" fill="#000000">3</text>
</g>
<!-- 2&#45;&gt;3 -->
<g id="edge4" class="edge">
<title>2&#45;&gt;3</title>
<path fill="none" stroke="#000000" d="M39,-149.5848C39,-138.1105 39,-123.0231 39,-109.5774"/>
<polygon fill="#000000" stroke="#000000" points="42.5001,-109.2465 39,-99.2465 35.5001,-109.2466 42.5001,-109.2465"/>
<text text-anchor="middle" x="42.5" y="-120.8" font-family="Times,serif" font-size="14.00" fill="#000000">b</text>
</g>
<!-- 3&#45;&gt;3 -->
<g id="edge5" class="edge">
<title>3&#45;&gt;3</title>
<path fill="none" stroke="#000000" d="M59.5808,-85.3702C69.8447,-86.5284 79,-83.7383 79,-77 79,-72.6833 75.2427,-69.9869 69.8436,-68.9109"/>
<polygon fill="#000000" stroke="#000000" points="69.6729,-65.405 59.5808,-68.6298 69.4812,-72.4024 69.6729,-65.405"/>
<text text-anchor="middle" x="82.5" y="-73.3" font-family="Times,serif" font-size="14.00" fill="#000000">a</text>
</g>
</g>
</svg>
