<?xml version="1.0" encoding="UTF-8" standalone="no"?>
<!DOCTYPE svg PUBLIC "-//W3C//DTD SVG 1.1//EN"
 "http://www.w3.org/Graphics/SVG/1.1/DTD/svg11.dtd">
<!-- Generated by graphviz version 2.38.0 (20140413.2041)
 -->
<!-- Title: %3 Pages: 1 -->
<svg width="241pt" height="344pt"
 viewBox="0.00 0.00 241.00 343.60" xmlns="http://www.w3.org/2000/svg" xmlns:xlink="http://www.w3.org/1999/xlink">
<g id="graph0" class="graph" transform="scale(1 1) rotate(0) translate(4 339.6)">
<title>%3</title>
<polygon fill="white" stroke="none" points="-4,4 -4,-339.6 237,-339.6 237,4 -4,4"/>
<text text-anchor="middle" x="116.5" y="-7.8" font-family="Times,serif" font-size="14.00">(a*ba*(bb*a))*b+(a*(ba*b)b*a)*(ba*b)</text>
<!-- qi -->
<g id="node1" class="node"><title>qi</title>
<ellipse fill="black" stroke="black" cx="137" cy="-333.8" rx="1.8" ry="1.8"/>
</g>
<!-- 1 -->
<g id="node2" class="node"><title>1</title>
<ellipse fill="none" stroke="black" cx="137" cy="-263" rx="18" ry="18"/>
<text text-anchor="middle" x="137" y="-259.3" font-family="Times,serif" font-size="14.00">1</text>
</g>
<!-- qi&#45;&gt;1 -->
<g id="edge1" class="edge"><title>qi&#45;&gt;1</title>
<path fill="none" stroke="black" d="M137,-331.827C137,-327.337 137,-308.111 137,-291.269"/>
<polygon fill="black" stroke="black" points="140.5,-291.245 137,-281.245 133.5,-291.245 140.5,-291.245"/>
<text text-anchor="middle" x="149" y="-302.8" font-family="Times,serif" font-size="14.00">start</text>
</g>
<!-- 1&#45;&gt;1 -->
<g id="edge2" class="edge"><title>1&#45;&gt;1</title>
<path fill="none" stroke="black" d="M153.664,-270.383C163.625,-272.023 173,-269.562 173,-263 173,-258.796 169.152,-256.275 163.768,-255.438"/>
<polygon fill="black" stroke="black" points="163.6,-251.94 153.664,-255.617 163.725,-258.939 163.6,-251.94"/>
<text text-anchor="middle" x="176.5" y="-259.3" font-family="Times,serif" font-size="14.00">a</text>
</g>
<!-- 2 -->
<g id="node3" class="node"><title>2</title>
<ellipse fill="none" stroke="green" cx="75" cy="-172" rx="18" ry="18"/>
<ellipse fill="none" stroke="green" cx="75" cy="-172" rx="22" ry="22"/>
<text text-anchor="middle" x="75" y="-168.3" font-family="Times,serif" font-size="14.00">2</text>
</g>
<!-- 1&#45;&gt;2 -->
<g id="edge3" class="edge"><title>1&#45;&gt;2</title>
<path fill="none" stroke="black" d="M127.039,-247.701C117.912,-234.599 104.179,-214.886 93.1118,-198.999"/>
<polygon fill="black" stroke="black" points="95.8719,-196.838 87.2839,-190.633 90.1282,-200.839 95.8719,-196.838"/>
<text text-anchor="middle" x="115.5" y="-215.8" font-family="Times,serif" font-size="14.00">b</text>
</g>
<!-- 2&#45;&gt;2 -->
<g id="edge7" class="edge"><title>2&#45;&gt;2</title>
<path fill="none" stroke="black" d="M95.5808,-180.37C105.845,-181.528 115,-178.738 115,-172 115,-167.683 111.243,-164.987 105.844,-163.911"/>
<polygon fill="black" stroke="black" points="105.673,-160.405 95.5808,-163.63 105.481,-167.402 105.673,-160.405"/>
<text text-anchor="middle" x="118.5" y="-168.3" font-family="Times,serif" font-size="14.00">a</text>
</g>
<!-- 3 -->
<g id="node4" class="node"><title>3</title>
<ellipse fill="none" stroke="green" cx="132" cy="-77" rx="18" ry="18"/>
<ellipse fill="none" stroke="green" cx="132" cy="-77" rx="22" ry="22"/>
<text text-anchor="middle" x="132" y="-73.3" font-family="Times,serif" font-size="14.00">3</text>
</g>
<!-- 2&#45;&gt;3 -->
<g id="edge6" class="edge"><title>2&#45;&gt;3</title>
<path fill="none" stroke="black" d="M86.2614,-152.626C94.6148,-138.997 106.133,-120.204 115.521,-104.887"/>
<polygon fill="black" stroke="black" points="118.52,-106.691 120.762,-96.3356 112.552,-103.033 118.52,-106.691"/>
<text text-anchor="middle" x="110.5" y="-120.8" font-family="Times,serif" font-size="14.00">b</text>
</g>
<!-- 3&#45;&gt;1 -->
<g id="edge4" class="edge"><title>3&#45;&gt;1</title>
<path fill="none" stroke="black" d="M132.572,-99.0364C133.479,-132.44 135.25,-197.608 136.256,-234.612"/>
<polygon fill="black" stroke="black" points="132.759,-234.789 136.53,-244.69 139.757,-234.598 132.759,-234.789"/>
<text text-anchor="middle" x="139.5" y="-168.3" font-family="Times,serif" font-size="14.00">a</text>
</g>
<!-- 3&#45;&gt;3 -->
<g id="edge5" class="edge"><title>3&#45;&gt;3</title>
<path fill="none" stroke="black" d="M152.581,-85.3702C162.845,-86.5284 172,-83.7383 172,-77 172,-72.6833 168.243,-69.9869 162.844,-68.9109"/>
<polygon fill="black" stroke="black" points="162.673,-65.405 152.581,-68.6298 162.481,-72.4024 162.673,-65.405"/>
<text text-anchor="middle" x="175.5" y="-73.3" font-family="Times,serif" font-size="14.00">b</text>
</g>
</g>
</svg>
