<?xml version="1.0" encoding="UTF-8" standalone="no"?>
<!DOCTYPE svg PUBLIC "-//W3C//DTD SVG 1.1//EN"
 "http://www.w3.org/Graphics/SVG/1.1/DTD/svg11.dtd">
<!-- Generated by graphviz version 2.40.1 (20161225.0304)
 -->
<!-- Title: %3 Pages: 1 -->
<svg width="146pt" height="526pt"
 viewBox="0.00 0.00 146.00 525.60" xmlns="http://www.w3.org/2000/svg" xmlns:xlink="http://www.w3.org/1999/xlink">
<g id="graph0" class="graph" transform="scale(1 1) rotate(0) translate(4 521.6)">
<title>%3</title>
<polygon fill="#ffffff" stroke="transparent" points="-4,4 -4,-521.6 142,-521.6 142,4 -4,4"/>
<text text-anchor="middle" x="69" y="-7.8" font-family="Times,serif" font-size="14.00" fill="#000000">a*(a+b)</text>
<!-- qi -->
<g id="node1" class="node">
<title>qi</title>
<ellipse fill="#000000" stroke="#000000" cx="18" cy="-515.8" rx="1.8" ry="1.8"/>
</g>
<!-- 0 -->
<g id="node2" class="node">
<title>0</title>
<ellipse fill="none" stroke="#000000" cx="18" cy="-445" rx="18" ry="18"/>
<text text-anchor="middle" x="18" y="-441.3" font-family="Times,serif" font-size="14.00" fill="#000000">0</text>
</g>
<!-- qi&#45;&gt;0 -->
<g id="edge1" class="edge">
<title>qi&#45;&gt;0</title>
<path fill="none" stroke="#000000" d="M18,-513.7574C18,-507.7315 18,-489.4337 18,-473.2287"/>
<polygon fill="#000000" stroke="#000000" points="21.5001,-473.0318 18,-463.0318 14.5001,-473.0319 21.5001,-473.0318"/>
<text text-anchor="middle" x="30" y="-484.8" font-family="Times,serif" font-size="14.00" fill="#000000">start</text>
</g>
<!-- 1 -->
<g id="node3" class="node">
<title>1</title>
<ellipse fill="none" stroke="#00ff00" cx="44" cy="-164" rx="18" ry="18"/>
<ellipse fill="none" stroke="#00ff00" cx="44" cy="-164" rx="22" ry="22"/>
<text text-anchor="middle" x="44" y="-160.3" font-family="Times,serif" font-size="14.00" fill="#000000">1</text>
</g>
<!-- 0&#45;&gt;1 -->
<g id="edge2" class="edge">
<title>0&#45;&gt;1</title>
<path fill="none" stroke="#000000" d="M17.665,-426.8411C17.4258,-412.927 17.125,-393.2514 17,-376 16.8583,-356.445 15.4435,-351.4935 17,-332 20.8189,-284.1713 30.6605,-229.4067 37.3452,-195.7603"/>
<polygon fill="#000000" stroke="#000000" points="40.8454,-196.1085 39.393,-185.6137 33.9838,-194.7236 40.8454,-196.1085"/>
<text text-anchor="middle" x="23.5" y="-302.8" font-family="Times,serif" font-size="14.00" fill="#000000">b</text>
</g>
<!-- 2 -->
<g id="node4" class="node">
<title>2</title>
<ellipse fill="none" stroke="#00ff00" cx="48" cy="-354" rx="18" ry="18"/>
<ellipse fill="none" stroke="#00ff00" cx="48" cy="-354" rx="22" ry="22"/>
<text text-anchor="middle" x="48" y="-350.3" font-family="Times,serif" font-size="14.00" fill="#000000">2</text>
</g>
<!-- 0&#45;&gt;2 -->
<g id="edge3" class="edge">
<title>0&#45;&gt;2</title>
<path fill="none" stroke="#000000" d="M23.6428,-427.8836C27.6421,-415.7524 33.119,-399.1391 37.8664,-384.7384"/>
<polygon fill="#000000" stroke="#000000" points="41.2025,-385.7976 41.0095,-375.2045 34.5545,-383.6058 41.2025,-385.7976"/>
<text text-anchor="middle" x="37.5" y="-397.8" font-family="Times,serif" font-size="14.00" fill="#000000">a</text>
</g>
<!-- 3 -->
<g id="node5" class="node">
<title>3</title>
<ellipse fill="none" stroke="#000000" cx="44" cy="-73" rx="18" ry="18"/>
<text text-anchor="middle" x="44" y="-69.3" font-family="Times,serif" font-size="14.00" fill="#000000">3</text>
</g>
<!-- 1&#45;&gt;3 -->
<g id="edge4" class="edge">
<title>1&#45;&gt;3</title>
<path fill="none" stroke="#000000" d="M44,-141.9714C44,-129.8075 44,-114.5615 44,-101.499"/>
<polygon fill="#000000" stroke="#000000" points="47.5001,-101.1556 44,-91.1556 40.5001,-101.1556 47.5001,-101.1556"/>
<text text-anchor="middle" x="52.5" y="-112.8" font-family="Times,serif" font-size="14.00" fill="#000000">b,a</text>
</g>
<!-- 2&#45;&gt;1 -->
<g id="edge5" class="edge">
<title>2&#45;&gt;1</title>
<path fill="none" stroke="#000000" d="M47.5333,-331.8327C46.8288,-298.368 45.4899,-234.7692 44.6778,-196.1962"/>
<polygon fill="#000000" stroke="#000000" points="48.1735,-195.9502 44.4637,-186.0261 41.1751,-196.0976 48.1735,-195.9502"/>
<text text-anchor="middle" x="49.5" y="-255.3" font-family="Times,serif" font-size="14.00" fill="#000000">b</text>
</g>
<!-- 4 -->
<g id="node6" class="node">
<title>4</title>
<ellipse fill="none" stroke="#00ff00" cx="91" cy="-259" rx="18" ry="18"/>
<ellipse fill="none" stroke="#00ff00" cx="91" cy="-259" rx="22" ry="22"/>
<text text-anchor="middle" x="91" y="-255.3" font-family="Times,serif" font-size="14.00" fill="#000000">4</text>
</g>
<!-- 2&#45;&gt;4 -->
<g id="edge6" class="edge">
<title>2&#45;&gt;4</title>
<path fill="none" stroke="#000000" d="M57.1192,-333.8529C63.1052,-320.628 71.0336,-303.1118 77.7157,-288.349"/>
<polygon fill="#000000" stroke="#000000" points="80.9589,-289.6715 81.894,-279.118 74.5817,-286.785 80.9589,-289.6715"/>
<text text-anchor="middle" x="75.5" y="-302.8" font-family="Times,serif" font-size="14.00" fill="#000000">a</text>
</g>
<!-- 3&#45;&gt;3 -->
<g id="edge7" class="edge">
<title>3&#45;&gt;3</title>
<path fill="none" stroke="#000000" d="M60.6641,-80.3828C70.625,-82.0234 80,-79.5625 80,-73 80,-68.7959 76.1525,-66.2751 70.7682,-65.4375"/>
<polygon fill="#000000" stroke="#000000" points="70.6002,-61.9399 60.6641,-65.6172 70.7247,-68.9388 70.6002,-61.9399"/>
<text text-anchor="middle" x="88.5" y="-69.3" font-family="Times,serif" font-size="14.00" fill="#000000">b,a</text>
</g>
<!-- 4&#45;&gt;1 -->
<g id="edge8" class="edge">
<title>4&#45;&gt;1</title>
<path fill="none" stroke="#000000" d="M81.0325,-238.8529C74.4454,-225.5387 65.7065,-207.8749 58.3722,-193.0501"/>
<polygon fill="#000000" stroke="#000000" points="61.3634,-191.2033 53.792,-183.7923 55.0893,-194.3074 61.3634,-191.2033"/>
<text text-anchor="middle" x="73.5" y="-207.8" font-family="Times,serif" font-size="14.00" fill="#000000">b</text>
</g>
<!-- 4&#45;&gt;4 -->
<g id="edge9" class="edge">
<title>4&#45;&gt;4</title>
<path fill="none" stroke="#000000" d="M111.5808,-267.3702C121.8447,-268.5284 131,-265.7383 131,-259 131,-254.6833 127.2427,-251.9869 121.8436,-250.9109"/>
<polygon fill="#000000" stroke="#000000" points="121.6729,-247.405 111.5808,-250.6298 121.4812,-254.4024 121.6729,-247.405"/>
<text text-anchor="middle" x="134.5" y="-255.3" font-family="Times,serif" font-size="14.00" fill="#000000">a</text>
</g>
</g>
</svg>
