<?xml version="1.0" encoding="UTF-8" standalone="no"?>
<!DOCTYPE svg PUBLIC "-//W3C//DTD SVG 1.1//EN"
 "http://www.w3.org/Graphics/SVG/1.1/DTD/svg11.dtd">
<!-- Generated by graphviz version 2.40.1 (20161225.0304)
 -->
<!-- Title: %3 Pages: 1 -->
<svg width="135pt" height="344pt"
 viewBox="0.00 0.00 135.00 343.60" xmlns="http://www.w3.org/2000/svg" xmlns:xlink="http://www.w3.org/1999/xlink">
<g id="graph0" class="graph" transform="scale(1 1) rotate(0) translate(4 339.6)">
<title>%3</title>
<polygon fill="#ffffff" stroke="transparent" points="-4,4 -4,-339.6 131,-339.6 131,4 -4,4"/>
<text text-anchor="middle" x="63.5" y="-7.8" font-family="Times,serif" font-size="14.00" fill="#000000">FA1</text>
<!-- qi -->
<g id="node1" class="node">
<title>qi</title>
<ellipse fill="#000000" stroke="#000000" cx="84" cy="-333.8" rx="1.8" ry="1.8"/>
</g>
<!-- 1 -->
<g id="node2" class="node">
<title>1</title>
<ellipse fill="none" stroke="#000000" cx="84" cy="-263" rx="18" ry="18"/>
<text text-anchor="middle" x="84" y="-259.3" font-family="Times,serif" font-size="14.00" fill="#000000">1</text>
</g>
<!-- qi&#45;&gt;1 -->
<g id="edge1" class="edge">
<title>qi&#45;&gt;1</title>
<path fill="none" stroke="#000000" d="M84,-331.7574C84,-325.7315 84,-307.4337 84,-291.2287"/>
<polygon fill="#000000" stroke="#000000" points="87.5001,-291.0318 84,-281.0318 80.5001,-291.0319 87.5001,-291.0318"/>
<text text-anchor="middle" x="96" y="-302.8" font-family="Times,serif" font-size="14.00" fill="#000000">start</text>
</g>
<!-- 1&#45;&gt;1 -->
<g id="edge2" class="edge">
<title>1&#45;&gt;1</title>
<path fill="none" stroke="#000000" d="M100.6641,-270.3828C110.625,-272.0234 120,-269.5625 120,-263 120,-258.7959 116.1525,-256.2751 110.7682,-255.4375"/>
<polygon fill="#000000" stroke="#000000" points="110.6002,-251.9399 100.6641,-255.6172 110.7247,-258.9388 110.6002,-251.9399"/>
<text text-anchor="middle" x="123.5" y="-259.3" font-family="Times,serif" font-size="14.00" fill="#000000">a</text>
</g>
<!-- 2 -->
<g id="node4" class="node">
<title>2</title>
<ellipse fill="none" stroke="#00ff00" cx="22" cy="-172" rx="18" ry="18"/>
<ellipse fill="none" stroke="#00ff00" cx="22" cy="-172" rx="22" ry="22"/>
<text text-anchor="middle" x="22" y="-168.3" font-family="Times,serif" font-size="14.00" fill="#000000">2</text>
</g>
<!-- 1&#45;&gt;2 -->
<g id="edge3" class="edge">
<title>1&#45;&gt;2</title>
<path fill="none" stroke="#000000" d="M73.762,-247.9732C64.6497,-234.5987 51.108,-214.723 40.1609,-198.6554"/>
<polygon fill="#000000" stroke="#000000" points="42.9137,-196.4798 34.3906,-190.1863 37.1288,-200.4212 42.9137,-196.4798"/>
<text text-anchor="middle" x="62.5" y="-215.8" font-family="Times,serif" font-size="14.00" fill="#000000">b</text>
</g>
<!-- 3 -->
<g id="node3" class="node">
<title>3</title>
<ellipse fill="none" stroke="#00ff00" cx="64" cy="-77" rx="18" ry="18"/>
<ellipse fill="none" stroke="#00ff00" cx="64" cy="-77" rx="22" ry="22"/>
<text text-anchor="middle" x="64" y="-73.3" font-family="Times,serif" font-size="14.00" fill="#000000">3</text>
</g>
<!-- 3&#45;&gt;1 -->
<g id="edge6" class="edge">
<title>3&#45;&gt;1</title>
<path fill="none" stroke="#000000" d="M68.9452,-98.5988C72.0585,-113.065 75.877,-132.5787 78,-150 81.5082,-178.7882 82.9655,-211.95 83.5707,-234.8687"/>
<polygon fill="#000000" stroke="#000000" points="80.0729,-235.0108 83.7989,-244.9288 87.0711,-234.852 80.0729,-235.0108"/>
<text text-anchor="middle" x="85.5" y="-168.3" font-family="Times,serif" font-size="14.00" fill="#000000">a</text>
</g>
<!-- 3&#45;&gt;3 -->
<g id="edge7" class="edge">
<title>3&#45;&gt;3</title>
<path fill="none" stroke="#000000" d="M84.5808,-85.3702C94.8447,-86.5284 104,-83.7383 104,-77 104,-72.6833 100.2427,-69.9869 94.8436,-68.9109"/>
<polygon fill="#000000" stroke="#000000" points="94.6729,-65.405 84.5808,-68.6298 94.4812,-72.4024 94.6729,-65.405"/>
<text text-anchor="middle" x="107.5" y="-73.3" font-family="Times,serif" font-size="14.00" fill="#000000">b</text>
</g>
<!-- 2&#45;&gt;3 -->
<g id="edge5" class="edge">
<title>2&#45;&gt;3</title>
<path fill="none" stroke="#000000" d="M30.9071,-151.8529C36.7144,-138.7174 44.3934,-121.3483 50.8922,-106.6486"/>
<polygon fill="#000000" stroke="#000000" points="54.1185,-108.0068 54.9609,-97.4455 47.7162,-105.1763 54.1185,-108.0068"/>
<text text-anchor="middle" x="49.5" y="-120.8" font-family="Times,serif" font-size="14.00" fill="#000000">b</text>
</g>
<!-- 2&#45;&gt;2 -->
<g id="edge4" class="edge">
<title>2&#45;&gt;2</title>
<path fill="none" stroke="#000000" d="M42.5808,-180.3702C52.8447,-181.5284 62,-178.7383 62,-172 62,-167.6833 58.2427,-164.9869 52.8436,-163.9109"/>
<polygon fill="#000000" stroke="#000000" points="52.6729,-160.405 42.5808,-163.6298 52.4812,-167.4024 52.6729,-160.405"/>
<text text-anchor="middle" x="65.5" y="-168.3" font-family="Times,serif" font-size="14.00" fill="#000000">a</text>
</g>
</g>
</svg>
