<?xml version="1.0" encoding="UTF-8" standalone="no"?>
<!DOCTYPE svg PUBLIC "-//W3C//DTD SVG 1.1//EN"
 "http://www.w3.org/Graphics/SVG/1.1/DTD/svg11.dtd">
<!-- Generated by graphviz version 2.40.1 (20161225.0304)
 -->
<!-- Title: %3 Pages: 1 -->
<svg width="103pt" height="336pt"
 viewBox="0.00 0.00 103.00 335.60" xmlns="http://www.w3.org/2000/svg" xmlns:xlink="http://www.w3.org/1999/xlink">
<g id="graph0" class="graph" transform="scale(1 1) rotate(0) translate(4 331.6)">
<title>%3</title>
<polygon fill="#ffffff" stroke="transparent" points="-4,4 -4,-331.6 99,-331.6 99,4 -4,4"/>
<text text-anchor="middle" x="47.5" y="-7.8" font-family="Times,serif" font-size="14.00" fill="#000000">FA2</text>
<!-- qi -->
<g id="node1" class="node">
<title>qi</title>
<ellipse fill="#000000" stroke="#000000" cx="52" cy="-325.8" rx="1.8" ry="1.8"/>
</g>
<!-- 5 -->
<g id="node3" class="node">
<title>5</title>
<ellipse fill="none" stroke="#000000" cx="52" cy="-255" rx="18" ry="18"/>
<text text-anchor="middle" x="52" y="-251.3" font-family="Times,serif" font-size="14.00" fill="#000000">5</text>
</g>
<!-- qi&#45;&gt;5 -->
<g id="edge1" class="edge">
<title>qi&#45;&gt;5</title>
<path fill="none" stroke="#000000" d="M52,-323.7574C52,-317.7315 52,-299.4337 52,-283.2287"/>
<polygon fill="#000000" stroke="#000000" points="55.5001,-283.0318 52,-273.0318 48.5001,-283.0319 55.5001,-283.0318"/>
<text text-anchor="middle" x="64" y="-294.8" font-family="Times,serif" font-size="14.00" fill="#000000">start</text>
</g>
<!-- 7 -->
<g id="node2" class="node">
<title>7</title>
<ellipse fill="none" stroke="#00ff00" cx="22" cy="-164" rx="18" ry="18"/>
<ellipse fill="none" stroke="#00ff00" cx="22" cy="-164" rx="22" ry="22"/>
<text text-anchor="middle" x="22" y="-160.3" font-family="Times,serif" font-size="14.00" fill="#000000">7</text>
</g>
<!-- 7&#45;&gt;5 -->
<g id="edge6" class="edge">
<title>7&#45;&gt;5</title>
<path fill="none" stroke="#000000" d="M28.9905,-185.2045C33.2012,-197.977 38.6035,-214.3639 43.1152,-228.0494"/>
<polygon fill="#000000" stroke="#000000" points="39.9022,-229.4822 46.3572,-237.8836 46.5502,-227.2905 39.9022,-229.4822"/>
<text text-anchor="middle" x="42.5" y="-207.8" font-family="Times,serif" font-size="14.00" fill="#000000">a</text>
</g>
<!-- 6 -->
<g id="node4" class="node">
<title>6</title>
<ellipse fill="none" stroke="#000000" cx="52" cy="-73" rx="18" ry="18"/>
<text text-anchor="middle" x="52" y="-69.3" font-family="Times,serif" font-size="14.00" fill="#000000">6</text>
</g>
<!-- 7&#45;&gt;6 -->
<g id="edge7" class="edge">
<title>7&#45;&gt;6</title>
<path fill="none" stroke="#000000" d="M20.3069,-141.9969C20.2352,-131.6941 21.2067,-119.4241 25,-109 26.8884,-103.8105 29.7926,-98.742 33.0075,-94.1235"/>
<polygon fill="#000000" stroke="#000000" points="36.0331,-95.9328 39.3876,-85.883 30.4981,-91.6474 36.0331,-95.9328"/>
<text text-anchor="middle" x="28.5" y="-112.8" font-family="Times,serif" font-size="14.00" fill="#000000">b</text>
</g>
<!-- 5&#45;&gt;7 -->
<g id="edge3" class="edge">
<title>5&#45;&gt;7</title>
<path fill="none" stroke="#000000" d="M39.3876,-242.117C33.9332,-235.7062 28.099,-227.5162 25,-219 22.3921,-211.8334 21.118,-203.7944 20.5996,-196.1219"/>
<polygon fill="#000000" stroke="#000000" points="24.0947,-195.8978 20.3069,-186.0031 17.0976,-196.1002 24.0947,-195.8978"/>
<text text-anchor="middle" x="28.5" y="-207.8" font-family="Times,serif" font-size="14.00" fill="#000000">b</text>
</g>
<!-- 5&#45;&gt;6 -->
<g id="edge2" class="edge">
<title>5&#45;&gt;6</title>
<path fill="none" stroke="#000000" d="M52.335,-236.8411C52.5742,-222.927 52.875,-203.2514 53,-186 53.1417,-166.445 53.1417,-161.555 53,-142 52.9033,-128.6572 52.7015,-113.8641 52.5043,-101.4082"/>
<polygon fill="#000000" stroke="#000000" points="55.9998,-101.0997 52.335,-91.1589 49.0007,-101.2154 55.9998,-101.0997"/>
<text text-anchor="middle" x="56.5" y="-160.3" font-family="Times,serif" font-size="14.00" fill="#000000">a</text>
</g>
<!-- 6&#45;&gt;7 -->
<g id="edge5" class="edge">
<title>6&#45;&gt;7</title>
<path fill="none" stroke="#000000" d="M46.2866,-90.3306C42.3195,-102.3643 36.9236,-118.7319 32.2253,-132.9832"/>
<polygon fill="#000000" stroke="#000000" points="28.765,-132.301 28.958,-142.894 35.4131,-134.4927 28.765,-132.301"/>
<text text-anchor="middle" x="42.5" y="-112.8" font-family="Times,serif" font-size="14.00" fill="#000000">b</text>
</g>
<!-- 6&#45;&gt;6 -->
<g id="edge4" class="edge">
<title>6&#45;&gt;6</title>
<path fill="none" stroke="#000000" d="M68.6641,-80.3828C78.625,-82.0234 88,-79.5625 88,-73 88,-68.7959 84.1525,-66.2751 78.7682,-65.4375"/>
<polygon fill="#000000" stroke="#000000" points="78.6002,-61.9399 68.6641,-65.6172 78.7247,-68.9388 78.6002,-61.9399"/>
<text text-anchor="middle" x="91.5" y="-69.3" font-family="Times,serif" font-size="14.00" fill="#000000">a</text>
</g>
</g>
</svg>
