<?xml version="1.0" encoding="UTF-8" standalone="no"?>
<!DOCTYPE svg PUBLIC "-//W3C//DTD SVG 1.1//EN"
 "http://www.w3.org/Graphics/SVG/1.1/DTD/svg11.dtd">
<!-- Generated by graphviz version 2.40.1 (20161225.0304)
 -->
<!-- Title: %3 Pages: 1 -->
<svg width="388pt" height="798pt"
 viewBox="0.00 0.00 388.00 797.57" xmlns="http://www.w3.org/2000/svg" xmlns:xlink="http://www.w3.org/1999/xlink">
<g id="graph0" class="graph" transform="scale(1 1) rotate(0) translate(4 793.5686)">
<title>%3</title>
<polygon fill="#ffffff" stroke="transparent" points="-4,4 -4,-793.5686 384,-793.5686 384,4 -4,4"/>
<text text-anchor="middle" x="190" y="-7.8" font-family="Times,serif" font-size="14.00" fill="#000000">inclusion</text>
<!-- qi -->
<g id="node1" class="node">
<title>qi</title>
<ellipse fill="#000000" stroke="#000000" cx="139" cy="-767.4706" rx="1.8" ry="1.8"/>
</g>
<!-- 1,5 -->
<g id="node3" class="node">
<title>1,5</title>
<ellipse fill="none" stroke="#000000" cx="139" cy="-672.2745" rx="22.1965" ry="22.1965"/>
<text text-anchor="middle" x="139" y="-668.5745" font-family="Times,serif" font-size="14.00" fill="#000000">1,5</text>
</g>
<!-- qi&#45;&gt;1,5 -->
<g id="edge1" class="edge">
<title>qi&#45;&gt;1,5</title>
<path fill="none" stroke="#000000" d="M139,-765.4823C139,-757.6675 139,-728.3281 139,-704.6272"/>
<polygon fill="#000000" stroke="#000000" points="142.5001,-704.5637 139,-694.5637 135.5001,-704.5637 142.5001,-704.5637"/>
<text text-anchor="middle" x="151" y="-716.1725" font-family="Times,serif" font-size="14.00" fill="#000000">start</text>
</g>
<!-- 1,7 -->
<g id="node2" class="node">
<title>1,7</title>
<ellipse fill="none" stroke="#000000" cx="334" cy="-767.4706" rx="22.1965" ry="22.1965"/>
<text text-anchor="middle" x="334" y="-763.7706" font-family="Times,serif" font-size="14.00" fill="#000000">1,7</text>
</g>
<!-- 1,7&#45;&gt;1,5 -->
<g id="edge2" class="edge">
<title>1,7&#45;&gt;1,5</title>
<path fill="none" stroke="#000000" d="M313.866,-757.6415C279.1826,-740.7096 208.0455,-705.9815 168.0169,-686.4401"/>
<polygon fill="#000000" stroke="#000000" points="169.5463,-683.292 159.0244,-682.0501 166.4753,-689.5824 169.5463,-683.292"/>
<text text-anchor="middle" x="251.5" y="-716.1725" font-family="Times,serif" font-size="14.00" fill="#000000">a</text>
</g>
<!-- 2,6 -->
<g id="node10" class="node">
<title>2,6</title>
<ellipse fill="none" stroke="#00ff00" cx="248" cy="-374.6863" rx="22.1814" ry="22.1814"/>
<ellipse fill="none" stroke="#00ff00" cx="248" cy="-374.6863" rx="26.1964" ry="26.1964"/>
<text text-anchor="middle" x="248" y="-370.9863" font-family="Times,serif" font-size="14.00" fill="#000000">2,6</text>
</g>
<!-- 1,7&#45;&gt;2,6 -->
<g id="edge3" class="edge">
<title>1,7&#45;&gt;2,6</title>
<path fill="none" stroke="#000000" d="M346.5545,-749.0572C357.9555,-730.5173 373,-700.6723 373,-672.2745 373,-672.2745 373,-672.2745 373,-477.8824 373,-430.7374 319.4682,-401.1027 282.4683,-386.2504"/>
<polygon fill="#000000" stroke="#000000" points="283.5855,-382.9304 272.9952,-382.621 281.081,-389.4671 283.5855,-382.9304"/>
<text text-anchor="middle" x="376.5" y="-573.3784" font-family="Times,serif" font-size="14.00" fill="#000000">b</text>
</g>
<!-- 2,7 -->
<g id="node4" class="node">
<title>2,7</title>
<ellipse fill="none" stroke="#000000" cx="98" cy="-577.0784" rx="22.1965" ry="22.1965"/>
<text text-anchor="middle" x="98" y="-573.3784" font-family="Times,serif" font-size="14.00" fill="#000000">2,7</text>
</g>
<!-- 1,5&#45;&gt;2,7 -->
<g id="edge5" class="edge">
<title>1,5&#45;&gt;2,7</title>
<path fill="none" stroke="#000000" d="M130.1036,-651.6184C124.516,-638.6447 117.2135,-621.6893 110.9851,-607.2279"/>
<polygon fill="#000000" stroke="#000000" points="114.0493,-605.4942 106.879,-597.6943 107.6202,-608.2631 114.0493,-605.4942"/>
<text text-anchor="middle" x="124.5" y="-620.9765" font-family="Times,serif" font-size="14.00" fill="#000000">b</text>
</g>
<!-- 1,6 -->
<g id="node5" class="node">
<title>1,6</title>
<ellipse fill="none" stroke="#000000" cx="80" cy="-77.098" rx="22.1965" ry="22.1965"/>
<text text-anchor="middle" x="80" y="-73.398" font-family="Times,serif" font-size="14.00" fill="#000000">1,6</text>
</g>
<!-- 1,5&#45;&gt;1,6 -->
<g id="edge4" class="edge">
<title>1,5&#45;&gt;1,6</title>
<path fill="none" stroke="#000000" d="M117.2813,-667.9297C78.1875,-658.7051 0,-633.2362 0,-577.0784 0,-577.0784 0,-577.0784 0,-176.2941 0,-141.8114 29.6535,-112.5477 52.8529,-94.9298"/>
<polygon fill="#000000" stroke="#000000" points="55.0102,-97.6886 61.0411,-88.9778 50.8944,-92.0265 55.0102,-97.6886"/>
<text text-anchor="middle" x="3.5" y="-370.9863" font-family="Times,serif" font-size="14.00" fill="#000000">a</text>
</g>
<!-- 2,5 -->
<g id="node6" class="node">
<title>2,5</title>
<ellipse fill="none" stroke="#00ff00" cx="197" cy="-477.8824" rx="22.1814" ry="22.1814"/>
<ellipse fill="none" stroke="#00ff00" cx="197" cy="-477.8824" rx="26.1964" ry="26.1964"/>
<text text-anchor="middle" x="197" y="-474.1824" font-family="Times,serif" font-size="14.00" fill="#000000">2,5</text>
</g>
<!-- 2,7&#45;&gt;2,5 -->
<g id="edge14" class="edge">
<title>2,7&#45;&gt;2,5</title>
<path fill="none" stroke="#000000" d="M113.9061,-561.1409C129.306,-545.7104 152.9197,-522.05 171.0437,-503.89"/>
<polygon fill="#000000" stroke="#000000" points="173.8484,-506.0345 178.4351,-496.484 168.8937,-501.0896 173.8484,-506.0345"/>
<text text-anchor="middle" x="153.5" y="-525.7804" font-family="Times,serif" font-size="14.00" fill="#000000">a</text>
</g>
<!-- 3,6 -->
<g id="node9" class="node">
<title>3,6</title>
<ellipse fill="none" stroke="#00ff00" cx="176" cy="-176.2941" rx="22.1814" ry="22.1814"/>
<ellipse fill="none" stroke="#00ff00" cx="176" cy="-176.2941" rx="26.1964" ry="26.1964"/>
<text text-anchor="middle" x="176" y="-172.5941" font-family="Times,serif" font-size="14.00" fill="#000000">3,6</text>
</g>
<!-- 2,7&#45;&gt;3,6 -->
<g id="edge15" class="edge">
<title>2,7&#45;&gt;3,6</title>
<path fill="none" stroke="#000000" d="M93.1035,-555.1405C89.0663,-535.1227 84,-504.6664 84,-477.8824 84,-477.8824 84,-477.8824 84,-275.4902 84,-249.5871 86.7178,-240.5382 103,-220.3922 113.3599,-207.5737 128.5122,-197.5652 142.3306,-190.3466"/>
<polygon fill="#000000" stroke="#000000" points="144.1727,-193.3414 151.6088,-185.7945 141.0894,-187.057 144.1727,-193.3414"/>
<text text-anchor="middle" x="87.5" y="-370.9863" font-family="Times,serif" font-size="14.00" fill="#000000">b</text>
</g>
<!-- 1,6&#45;&gt;2,7 -->
<g id="edge7" class="edge">
<title>1,6&#45;&gt;2,7</title>
<path fill="none" stroke="#000000" d="M67.1704,-95.1448C54.819,-114.3218 38,-145.9975 38,-176.2941 38,-477.8824 38,-477.8824 38,-477.8824 38,-507.4688 57.7836,-535.7847 74.6306,-554.5337"/>
<polygon fill="#000000" stroke="#000000" points="72.2074,-557.0661 81.6047,-561.9591 77.3098,-552.2739 72.2074,-557.0661"/>
<text text-anchor="middle" x="41.5" y="-319.3882" font-family="Times,serif" font-size="14.00" fill="#000000">b</text>
</g>
<!-- 1,6&#45;&gt;1,6 -->
<g id="edge6" class="edge">
<title>1,6&#45;&gt;1,6</title>
<path fill="none" stroke="#000000" d="M100.6312,-85.4682C110.9203,-86.6264 120.098,-83.8363 120.098,-77.098 120.098,-72.7813 116.3315,-70.085 110.9192,-69.0089"/>
<polygon fill="#000000" stroke="#000000" points="110.7232,-65.5024 100.6312,-68.7278 110.5319,-72.4998 110.7232,-65.5024"/>
<text text-anchor="middle" x="123.598" y="-73.398" font-family="Times,serif" font-size="14.00" fill="#000000">a</text>
</g>
<!-- 3,7 -->
<g id="node8" class="node">
<title>3,7</title>
<ellipse fill="none" stroke="#000000" cx="200" cy="-275.4902" rx="22.1965" ry="22.1965"/>
<text text-anchor="middle" x="200" y="-271.7902" font-family="Times,serif" font-size="14.00" fill="#000000">3,7</text>
</g>
<!-- 2,5&#45;&gt;3,7 -->
<g id="edge17" class="edge">
<title>2,5&#45;&gt;3,7</title>
<path fill="none" stroke="#000000" d="M197.3922,-451.4231C197.9392,-414.5183 198.9304,-347.6513 199.5206,-307.8335"/>
<polygon fill="#000000" stroke="#000000" points="203.0235,-307.6583 199.6722,-297.6075 196.0242,-307.5545 203.0235,-307.6583"/>
<text text-anchor="middle" x="201.5" y="-370.9863" font-family="Times,serif" font-size="14.00" fill="#000000">b</text>
</g>
<!-- 2,5&#45;&gt;2,6 -->
<g id="edge16" class="edge">
<title>2,5&#45;&gt;2,6</title>
<path fill="none" stroke="#000000" d="M208.5727,-454.4656C215.4359,-440.5781 224.2408,-422.7618 231.7883,-407.4899"/>
<polygon fill="#000000" stroke="#000000" points="235.0037,-408.8833 236.2966,-398.3676 228.7283,-405.7819 235.0037,-408.8833"/>
<text text-anchor="middle" x="228.5" y="-422.5843" font-family="Times,serif" font-size="14.00" fill="#000000">a</text>
</g>
<!-- 3,5 -->
<g id="node7" class="node">
<title>3,5</title>
<ellipse fill="none" stroke="#00ff00" cx="135" cy="-374.6863" rx="22.1814" ry="22.1814"/>
<ellipse fill="none" stroke="#00ff00" cx="135" cy="-374.6863" rx="26.1964" ry="26.1964"/>
<text text-anchor="middle" x="135" y="-370.9863" font-family="Times,serif" font-size="14.00" fill="#000000">3,5</text>
</g>
<!-- 3,5&#45;&gt;1,6 -->
<g id="edge10" class="edge">
<title>3,5&#45;&gt;1,6</title>
<path fill="none" stroke="#000000" d="M130.2153,-348.7979C120.1562,-294.3709 96.8435,-168.2328 85.8882,-108.9571"/>
<polygon fill="#000000" stroke="#000000" points="89.3133,-108.2306 84.054,-99.0333 82.4298,-109.5028 89.3133,-108.2306"/>
<text text-anchor="middle" x="112.5" y="-224.1922" font-family="Times,serif" font-size="14.00" fill="#000000">a</text>
</g>
<!-- 3,5&#45;&gt;3,7 -->
<g id="edge11" class="edge">
<title>3,5&#45;&gt;3,7</title>
<path fill="none" stroke="#000000" d="M149.4256,-352.6714C159.0553,-337.9756 171.7892,-318.5426 182.0701,-302.853"/>
<polygon fill="#000000" stroke="#000000" points="185.2445,-304.3944 187.7978,-294.1118 179.3895,-300.5578 185.2445,-304.3944"/>
<text text-anchor="middle" x="176.5" y="-319.3882" font-family="Times,serif" font-size="14.00" fill="#000000">b</text>
</g>
<!-- 3,7&#45;&gt;1,5 -->
<g id="edge8" class="edge">
<title>3,7&#45;&gt;1,5</title>
<path fill="none" stroke="#000000" d="M221.5438,-281.4518C257.7775,-292.9408 327,-321.8094 327,-374.6863 327,-577.0784 327,-577.0784 327,-577.0784 327,-646.0178 225.1379,-665.0459 171.3718,-670.2879"/>
<polygon fill="#000000" stroke="#000000" points="170.9636,-666.8101 161.3043,-671.1631 171.5699,-673.7838 170.9636,-666.8101"/>
<text text-anchor="middle" x="330.5" y="-474.1824" font-family="Times,serif" font-size="14.00" fill="#000000">a</text>
</g>
<!-- 3,7&#45;&gt;3,6 -->
<g id="edge9" class="edge">
<title>3,7&#45;&gt;3,6</title>
<path fill="none" stroke="#000000" d="M186.2434,-258.1501C181.7389,-251.4366 177.3024,-243.4369 175,-235.3922 172.923,-228.1349 172.1222,-220.1686 172.0357,-212.5"/>
<polygon fill="#000000" stroke="#000000" points="175.5392,-212.4118 172.3077,-202.3218 168.5417,-212.2247 175.5392,-212.4118"/>
<text text-anchor="middle" x="178.5" y="-224.1922" font-family="Times,serif" font-size="14.00" fill="#000000">b</text>
</g>
<!-- 3,6&#45;&gt;1,6 -->
<g id="edge12" class="edge">
<title>3,6&#45;&gt;1,6</title>
<path fill="none" stroke="#000000" d="M163.0871,-153.283C155.9676,-141.7253 146.4595,-127.9353 136,-117.1961 127.6323,-108.6045 117.2255,-100.5902 107.6618,-94.0195"/>
<polygon fill="#000000" stroke="#000000" points="109.4689,-91.0184 99.1986,-88.416 105.6044,-96.855 109.4689,-91.0184"/>
<text text-anchor="middle" x="151.5" y="-120.9961" font-family="Times,serif" font-size="14.00" fill="#000000">a</text>
</g>
<!-- 3,6&#45;&gt;3,7 -->
<g id="edge13" class="edge">
<title>3,6&#45;&gt;3,7</title>
<path fill="none" stroke="#000000" d="M182.2186,-201.9968C185.3291,-214.8529 189.1205,-230.5234 192.402,-244.0866"/>
<polygon fill="#000000" stroke="#000000" points="189.0388,-245.0696 194.7924,-253.9661 195.8425,-243.4235 189.0388,-245.0696"/>
<text text-anchor="middle" x="193.5" y="-224.1922" font-family="Times,serif" font-size="14.00" fill="#000000">b</text>
</g>
<!-- 2,6&#45;&gt;3,7 -->
<g id="edge19" class="edge">
<title>2,6&#45;&gt;3,7</title>
<path fill="none" stroke="#000000" d="M236.6247,-351.1782C229.8931,-337.2669 221.3092,-319.5276 214.1439,-304.7198"/>
<polygon fill="#000000" stroke="#000000" points="217.1801,-302.9589 209.6738,-295.4819 210.8791,-306.008 217.1801,-302.9589"/>
<text text-anchor="middle" x="228.5" y="-319.3882" font-family="Times,serif" font-size="14.00" fill="#000000">b</text>
</g>
<!-- 2,6&#45;&gt;2,6 -->
<g id="edge18" class="edge">
<title>2,6&#45;&gt;2,6</title>
<path fill="none" stroke="#000000" d="M272.488,-383.9491C283.0527,-384.7075 292.098,-381.6199 292.098,-374.6863 292.098,-370.1361 288.2025,-367.2423 282.5386,-366.0047"/>
<polygon fill="#000000" stroke="#000000" points="282.6735,-362.5068 272.488,-365.4234 282.2692,-369.4951 282.6735,-362.5068"/>
<text text-anchor="middle" x="295.598" y="-370.9863" font-family="Times,serif" font-size="14.00" fill="#000000">a</text>
</g>
</g>
</svg>
