<?xml version="1.0" encoding="UTF-8" standalone="no"?>
<!DOCTYPE svg PUBLIC "-//W3C//DTD SVG 1.1//EN"
 "http://www.w3.org/Graphics/SVG/1.1/DTD/svg11.dtd">
<!-- Generated by graphviz version 2.40.1 (20161225.0304)
 -->
<!-- Title: %3 Pages: 1 -->
<svg width="372pt" height="599pt"
 viewBox="0.00 0.00 372.10 599.18" xmlns="http://www.w3.org/2000/svg" xmlns:xlink="http://www.w3.org/1999/xlink">
<g id="graph0" class="graph" transform="scale(1 1) rotate(0) translate(4 595.1765)">
<title>%3</title>
<polygon fill="#ffffff" stroke="transparent" points="-4,4 -4,-595.1765 368.098,-595.1765 368.098,4 -4,4"/>
<text text-anchor="middle" x="182.049" y="-7.8" font-family="Times,serif" font-size="14.00" fill="#000000">inclusion</text>
<!-- qi -->
<g id="node1" class="node">
<title>qi</title>
<ellipse fill="#000000" stroke="#000000" cx="151" cy="-569.0784" rx="1.8" ry="1.8"/>
</g>
<!-- 1,5 -->
<g id="node7" class="node">
<title>1,5</title>
<ellipse fill="none" stroke="#000000" cx="151" cy="-473.8824" rx="22.1965" ry="22.1965"/>
<text text-anchor="middle" x="151" y="-470.1824" font-family="Times,serif" font-size="14.00" fill="#000000">1,5</text>
</g>
<!-- qi&#45;&gt;1,5 -->
<g id="edge1" class="edge">
<title>qi&#45;&gt;1,5</title>
<path fill="none" stroke="#000000" d="M151,-567.0901C151,-559.2753 151,-529.9359 151,-506.235"/>
<polygon fill="#000000" stroke="#000000" points="154.5001,-506.1715 151,-496.1715 147.5001,-506.1716 154.5001,-506.1715"/>
<text text-anchor="middle" x="163" y="-517.7804" font-family="Times,serif" font-size="14.00" fill="#000000">start</text>
</g>
<!-- 3,6 -->
<g id="node2" class="node">
<title>3,6</title>
<ellipse fill="none" stroke="#00ff00" cx="67" cy="-279.4902" rx="22.1814" ry="22.1814"/>
<ellipse fill="none" stroke="#00ff00" cx="67" cy="-279.4902" rx="26.1964" ry="26.1964"/>
<text text-anchor="middle" x="67" y="-275.7902" font-family="Times,serif" font-size="14.00" fill="#000000">3,6</text>
</g>
<!-- 3,7 -->
<g id="node3" class="node">
<title>3,7</title>
<ellipse fill="none" stroke="#000000" cx="154" cy="-77.098" rx="22.1965" ry="22.1965"/>
<text text-anchor="middle" x="154" y="-73.398" font-family="Times,serif" font-size="14.00" fill="#000000">3,7</text>
</g>
<!-- 3,6&#45;&gt;3,7 -->
<g id="edge5" class="edge">
<title>3,6&#45;&gt;3,7</title>
<path fill="none" stroke="#000000" d="M61.9307,-253.4349C57.9309,-226.3734 55.2014,-183.4234 70,-150.1961 81.1857,-125.0807 105.8678,-105.3106 125.5985,-92.698"/>
<polygon fill="#000000" stroke="#000000" points="127.5403,-95.6132 134.2492,-87.4132 123.891,-89.6397 127.5403,-95.6132"/>
<text text-anchor="middle" x="73.5" y="-172.5941" font-family="Times,serif" font-size="14.00" fill="#000000">b</text>
</g>
<!-- 1,6 -->
<g id="node8" class="node">
<title>1,6</title>
<ellipse fill="none" stroke="#000000" cx="136" cy="-176.2941" rx="22.1965" ry="22.1965"/>
<text text-anchor="middle" x="136" y="-172.5941" font-family="Times,serif" font-size="14.00" fill="#000000">1,6</text>
</g>
<!-- 3,6&#45;&gt;1,6 -->
<g id="edge4" class="edge">
<title>3,6&#45;&gt;1,6</title>
<path fill="none" stroke="#000000" d="M81.6331,-257.605C92.2783,-241.6841 106.7514,-220.0381 118.0883,-203.0827"/>
<polygon fill="#000000" stroke="#000000" points="121.0452,-204.9573 123.694,-194.6989 115.2261,-201.0664 121.0452,-204.9573"/>
<text text-anchor="middle" x="109.5" y="-224.1922" font-family="Times,serif" font-size="14.00" fill="#000000">a</text>
</g>
<!-- 3,7&#45;&gt;3,6 -->
<g id="edge3" class="edge">
<title>3,7&#45;&gt;3,6</title>
<path fill="none" stroke="#000000" d="M138.4516,-93.1818C125.7657,-107.1713 108.312,-128.5465 98,-150.1961 83.8914,-179.8162 75.8933,-216.4012 71.5696,-243.0867"/>
<polygon fill="#000000" stroke="#000000" points="68.0824,-242.7378 70.0362,-253.1509 75.0026,-243.7921 68.0824,-242.7378"/>
<text text-anchor="middle" x="101.5" y="-172.5941" font-family="Times,serif" font-size="14.00" fill="#000000">b</text>
</g>
<!-- 3,7&#45;&gt;1,5 -->
<g id="edge2" class="edge">
<title>3,7&#45;&gt;1,5</title>
<path fill="none" stroke="#000000" d="M131.9356,-80.7472C89.3532,-89.185 0,-114.2792 0,-176.2941 0,-378.6863 0,-378.6863 0,-378.6863 0,-434.4884 74.7056,-458.8879 119.0244,-468.453"/>
<polygon fill="#000000" stroke="#000000" points="118.5484,-471.9275 129.0433,-470.476 119.9339,-465.066 118.5484,-471.9275"/>
<text text-anchor="middle" x="3.5" y="-275.7902" font-family="Times,serif" font-size="14.00" fill="#000000">a</text>
</g>
<!-- 2,6 -->
<g id="node4" class="node">
<title>2,6</title>
<ellipse fill="none" stroke="#00ff00" cx="313" cy="-176.2941" rx="22.1814" ry="22.1814"/>
<ellipse fill="none" stroke="#00ff00" cx="313" cy="-176.2941" rx="26.1964" ry="26.1964"/>
<text text-anchor="middle" x="313" y="-172.5941" font-family="Times,serif" font-size="14.00" fill="#000000">2,6</text>
</g>
<!-- 2,6&#45;&gt;3,7 -->
<g id="edge17" class="edge">
<title>2,6&#45;&gt;3,7</title>
<path fill="none" stroke="#000000" d="M302.7563,-152.1544C296.5741,-140.1517 287.626,-126.3029 276,-117.1961 249.6589,-96.5626 212.2734,-86.3407 185.8457,-81.4142"/>
<polygon fill="#000000" stroke="#000000" points="186.3994,-77.9582 175.9522,-79.7203 185.2181,-84.8578 186.3994,-77.9582"/>
<text text-anchor="middle" x="293.5" y="-120.9961" font-family="Times,serif" font-size="14.00" fill="#000000">b</text>
</g>
<!-- 2,6&#45;&gt;2,6 -->
<g id="edge16" class="edge">
<title>2,6&#45;&gt;2,6</title>
<path fill="none" stroke="#000000" d="M337.488,-185.557C348.0527,-186.3153 357.098,-183.2277 357.098,-176.2941 357.098,-171.7439 353.2025,-168.8501 347.5386,-167.6126"/>
<polygon fill="#000000" stroke="#000000" points="347.6735,-164.1146 337.488,-167.0313 347.2692,-171.1029 347.6735,-164.1146"/>
<text text-anchor="middle" x="360.598" y="-172.5941" font-family="Times,serif" font-size="14.00" fill="#000000">a</text>
</g>
<!-- 2,5 -->
<g id="node5" class="node">
<title>2,5</title>
<ellipse fill="none" stroke="#00ff00" cx="288" cy="-279.4902" rx="22.1814" ry="22.1814"/>
<ellipse fill="none" stroke="#00ff00" cx="288" cy="-279.4902" rx="26.1964" ry="26.1964"/>
<text text-anchor="middle" x="288" y="-275.7902" font-family="Times,serif" font-size="14.00" fill="#000000">2,5</text>
</g>
<!-- 2,5&#45;&gt;3,7 -->
<g id="edge19" class="edge">
<title>2,5&#45;&gt;3,7</title>
<path fill="none" stroke="#000000" d="M277.2432,-255.4151C261.8096,-222.3282 231.2152,-161.8318 195,-117.1961 189.9972,-111.0301 184.1325,-104.8145 178.4284,-99.1784"/>
<polygon fill="#000000" stroke="#000000" points="180.4871,-96.3036 170.8456,-91.9114 175.6436,-101.3575 180.4871,-96.3036"/>
<text text-anchor="middle" x="253.5" y="-172.5941" font-family="Times,serif" font-size="14.00" fill="#000000">b</text>
</g>
<!-- 2,5&#45;&gt;2,6 -->
<g id="edge18" class="edge">
<title>2,5&#45;&gt;2,6</title>
<path fill="none" stroke="#000000" d="M294.1798,-253.981C297.2748,-241.2054 301.0713,-225.5341 304.4418,-211.621"/>
<polygon fill="#000000" stroke="#000000" points="307.8517,-212.4104 306.8047,-201.8675 301.0485,-210.7622 307.8517,-212.4104"/>
<text text-anchor="middle" x="304.5" y="-224.1922" font-family="Times,serif" font-size="14.00" fill="#000000">a</text>
</g>
<!-- 2,7 -->
<g id="node6" class="node">
<title>2,7</title>
<ellipse fill="none" stroke="#000000" cx="114" cy="-378.6863" rx="22.1965" ry="22.1965"/>
<text text-anchor="middle" x="114" y="-374.9863" font-family="Times,serif" font-size="14.00" fill="#000000">2,7</text>
</g>
<!-- 2,7&#45;&gt;3,6 -->
<g id="edge15" class="edge">
<title>2,7&#45;&gt;3,6</title>
<path fill="none" stroke="#000000" d="M104.4888,-358.6125C98.2248,-345.3918 89.8757,-327.7707 82.6469,-312.5139"/>
<polygon fill="#000000" stroke="#000000" points="85.7641,-310.9186 78.3194,-303.3803 79.4383,-313.9159 85.7641,-310.9186"/>
<text text-anchor="middle" x="98.5" y="-327.3882" font-family="Times,serif" font-size="14.00" fill="#000000">b</text>
</g>
<!-- 2,7&#45;&gt;2,5 -->
<g id="edge14" class="edge">
<title>2,7&#45;&gt;2,5</title>
<path fill="none" stroke="#000000" d="M134.3456,-369.2291C161.9287,-356.1315 212.4047,-331.177 253,-305.5882 254.9276,-304.3732 256.8852,-303.0836 258.8391,-301.7537"/>
<polygon fill="#000000" stroke="#000000" points="261.1436,-304.4103 267.2776,-295.7718 257.0953,-298.6997 261.1436,-304.4103"/>
<text text-anchor="middle" x="222.5" y="-327.3882" font-family="Times,serif" font-size="14.00" fill="#000000">a</text>
</g>
<!-- 1,5&#45;&gt;2,7 -->
<g id="edge13" class="edge">
<title>1,5&#45;&gt;2,7</title>
<path fill="none" stroke="#000000" d="M142.9716,-453.2262C137.9291,-440.2526 131.339,-423.2971 125.7182,-408.8358"/>
<polygon fill="#000000" stroke="#000000" points="128.8978,-407.3549 122.0128,-399.3021 122.3733,-409.8908 128.8978,-407.3549"/>
<text text-anchor="middle" x="138.5" y="-422.5843" font-family="Times,serif" font-size="14.00" fill="#000000">b</text>
</g>
<!-- 1,5&#45;&gt;1,6 -->
<g id="edge12" class="edge">
<title>1,5&#45;&gt;1,6</title>
<path fill="none" stroke="#000000" d="M151.7917,-451.7532C153.0816,-407.5959 154.6117,-305.4719 145,-220.3922 144.5491,-216.4008 143.9164,-212.2343 143.193,-208.1238"/>
<polygon fill="#000000" stroke="#000000" points="146.5995,-207.3047 141.2603,-198.1536 139.7274,-208.637 146.5995,-207.3047"/>
<text text-anchor="middle" x="155.5" y="-327.3882" font-family="Times,serif" font-size="14.00" fill="#000000">a</text>
</g>
<!-- 1,6&#45;&gt;2,7 -->
<g id="edge11" class="edge">
<title>1,6&#45;&gt;2,7</title>
<path fill="none" stroke="#000000" d="M133.6067,-198.3117C129.7156,-234.1082 122.0003,-305.086 117.4952,-346.532"/>
<polygon fill="#000000" stroke="#000000" points="113.9975,-346.3218 116.3963,-356.6415 120.9565,-347.0783 113.9975,-346.3218"/>
<text text-anchor="middle" x="131.5" y="-275.7902" font-family="Times,serif" font-size="14.00" fill="#000000">b</text>
</g>
<!-- 1,6&#45;&gt;1,6 -->
<g id="edge10" class="edge">
<title>1,6&#45;&gt;1,6</title>
<path fill="none" stroke="#000000" d="M156.2191,-185.3395C166.674,-186.7311 176.098,-183.716 176.098,-176.2941 176.098,-171.4235 172.0394,-168.4507 166.2943,-167.3758"/>
<polygon fill="#000000" stroke="#000000" points="166.2625,-163.8752 156.2191,-167.2487 166.1741,-170.8746 166.2625,-163.8752"/>
<text text-anchor="middle" x="179.598" y="-172.5941" font-family="Times,serif" font-size="14.00" fill="#000000">a</text>
</g>
<!-- 3,5 -->
<g id="node9" class="node">
<title>3,5</title>
<ellipse fill="none" stroke="#00ff00" cx="218" cy="-279.4902" rx="22.1814" ry="22.1814"/>
<ellipse fill="none" stroke="#00ff00" cx="218" cy="-279.4902" rx="26.1964" ry="26.1964"/>
<text text-anchor="middle" x="218" y="-275.7902" font-family="Times,serif" font-size="14.00" fill="#000000">3,5</text>
</g>
<!-- 3,5&#45;&gt;3,7 -->
<g id="edge7" class="edge">
<title>3,5&#45;&gt;3,7</title>
<path fill="none" stroke="#000000" d="M214.9118,-253.1565C211.2911,-226.6141 204.1798,-184.7461 192,-150.1961 186.4749,-134.5232 178.1375,-118.0196 170.6787,-104.6677"/>
<polygon fill="#000000" stroke="#000000" points="173.708,-102.9144 165.7006,-95.9766 167.6338,-106.3936 173.708,-102.9144"/>
<text text-anchor="middle" x="208.5" y="-172.5941" font-family="Times,serif" font-size="14.00" fill="#000000">b</text>
</g>
<!-- 3,5&#45;&gt;1,6 -->
<g id="edge6" class="edge">
<title>3,5&#45;&gt;1,6</title>
<path fill="none" stroke="#000000" d="M202.9561,-257.7862C194.9125,-246.45 184.6924,-232.4623 175,-220.3922 169.6906,-213.7803 163.7263,-206.8222 158.0891,-200.4368"/>
<polygon fill="#000000" stroke="#000000" points="160.4706,-197.849 151.1977,-192.724 155.2507,-202.513 160.4706,-197.849"/>
<text text-anchor="middle" x="189.5" y="-224.1922" font-family="Times,serif" font-size="14.00" fill="#000000">a</text>
</g>
<!-- 1,7 -->
<g id="node10" class="node">
<title>1,7</title>
<ellipse fill="none" stroke="#000000" cx="309" cy="-569.0784" rx="22.1965" ry="22.1965"/>
<text text-anchor="middle" x="309" y="-565.3784" font-family="Times,serif" font-size="14.00" fill="#000000">1,7</text>
</g>
<!-- 1,7&#45;&gt;2,6 -->
<g id="edge9" class="edge">
<title>1,7&#45;&gt;2,6</title>
<path fill="none" stroke="#000000" d="M319.9885,-549.7006C329.5882,-530.9273 342,-501.3447 342,-473.8824 342,-473.8824 342,-473.8824 342,-279.4902 342,-255.6098 334.7137,-229.7413 327.4456,-209.8777"/>
<polygon fill="#000000" stroke="#000000" points="330.6458,-208.4476 323.7985,-200.3627 324.1095,-210.9529 330.6458,-208.4476"/>
<text text-anchor="middle" x="345.5" y="-374.9863" font-family="Times,serif" font-size="14.00" fill="#000000">b</text>
</g>
<!-- 1,7&#45;&gt;1,5 -->
<g id="edge8" class="edge">
<title>1,7&#45;&gt;1,5</title>
<path fill="none" stroke="#000000" d="M289.9415,-557.5956C262.3016,-540.9423 210.9136,-509.9807 178.9744,-490.7371"/>
<polygon fill="#000000" stroke="#000000" points="180.4978,-487.5688 170.1261,-485.4059 176.8853,-493.5646 180.4978,-487.5688"/>
<text text-anchor="middle" x="242.5" y="-517.7804" font-family="Times,serif" font-size="14.00" fill="#000000">a</text>
</g>
</g>
</svg>
